<svg width="20" height="11" viewBox="0 0 20 11" fill="none" xmlns="http://www.w3.org/2000/svg">
<path fill-rule="evenodd" clip-rule="evenodd" d="M14.0405 0.764984C14.3227 0.439103 14.8089 0.40975 15.1264 0.699422L19.7418 4.90994C19.906 5.05976 20 5.2745 20 5.5C20 5.7255 19.906 5.94024 19.7418 6.09006L15.1264 10.3006C14.8089 10.5903 14.3227 10.5609 14.0405 10.235C13.7582 9.90913 13.7868 9.41013 14.1043 9.12046L17.2075 6.28947H0.769231C0.344396 6.28947 0 5.93601 0 5.5C0 5.06399 0.344396 4.71053 0.769231 4.71053H17.2075L14.1043 1.87954C13.7868 1.58987 13.7582 1.09086 14.0405 0.764984Z" fill="#384A68"/>
</svg>
