<svg width="331" height="92" viewBox="0 0 331 92" fill="none" xmlns="http://www.w3.org/2000/svg">
<path d="M30.24 37.614C30.324 37.754 30.366 37.936 30.366 38.16C30.366 38.356 30.268 38.552 30.072 38.748C29.904 38.916 29.694 39 29.442 39H19.866C19.054 39 18.48 38.678 18.144 38.034L13.02 28.878V37.866C13.02 38.174 12.908 38.44 12.684 38.664C12.46 38.888 12.194 39 11.886 39H3.864C3.556 39 3.29 38.888 3.066 38.664C2.842 38.44 2.73 38.174 2.73 37.866V10.734C2.73 10.426 2.842 10.16 3.066 9.936C3.29 9.712 3.556 9.6 3.864 9.6H11.886C12.194 9.6 12.46 9.712 12.684 9.936C12.908 10.16 13.02 10.426 13.02 10.734V19.05L17.766 10.524C18.074 9.908 18.634 9.6 19.446 9.6H28.728C28.98 9.6 29.19 9.698 29.358 9.894C29.554 10.062 29.652 10.258 29.652 10.482C29.652 10.678 29.61 10.846 29.526 10.986L21.966 23.67L30.24 37.614ZM42.7307 9.6H51.8447C52.8527 9.6 53.4827 10.062 53.7347 10.986L63.1007 37.782C63.1287 37.866 63.1427 38.006 63.1427 38.202C63.1427 38.37 63.0447 38.552 62.8487 38.748C62.6807 38.916 62.4707 39 62.2187 39H54.4487C53.6087 39 53.0627 38.65 52.8107 37.95L51.8027 35.178H42.7727L41.7647 37.95C41.5127 38.65 40.9667 39 40.1267 39H32.3567C32.1047 39 31.8807 38.916 31.6847 38.748C31.5167 38.552 31.4327 38.37 31.4327 38.202C31.4327 38.006 31.4467 37.866 31.4747 37.782L40.8407 10.986C41.0927 10.062 41.7227 9.6 42.7307 9.6ZM44.9147 26.988H49.6607L47.2667 19.176L44.9147 26.988ZM65.7953 39.42C65.4873 39.42 65.2073 39.308 64.9553 39.084C64.7313 38.86 64.6193 38.594 64.6193 38.286V32.112C64.6193 31.804 64.7313 31.538 64.9553 31.314C65.1793 31.09 65.4453 30.978 65.7533 30.978C67.8253 30.978 68.8613 29.9 68.8613 27.744V10.734C68.8613 10.426 68.9733 10.16 69.1973 9.936C69.4213 9.712 69.6873 9.6 69.9953 9.6H93.8513C94.1593 9.6 94.4253 9.712 94.6493 9.936C94.8733 10.16 94.9853 10.426 94.9853 10.734V37.866C94.9853 38.174 94.8733 38.44 94.6493 38.664C94.4253 38.888 94.1593 39 93.8513 39H85.6193C85.3113 39 85.0453 38.888 84.8213 38.664C84.5973 38.44 84.4853 38.174 84.4853 37.866V18.84H79.3613V27.618C79.3613 31.538 78.1433 34.492 75.7073 36.48C73.2713 38.44 69.9673 39.42 65.7953 39.42ZM110.509 30.81H123.445C123.753 30.81 124.019 30.922 124.243 31.146C124.467 31.37 124.579 31.636 124.579 31.944V37.866C124.579 38.174 124.467 38.44 124.243 38.664C124.019 38.888 123.753 39 123.445 39H101.563C101.255 39 100.989 38.888 100.765 38.664C100.541 38.44 100.429 38.174 100.429 37.866V10.734C100.429 10.426 100.541 10.16 100.765 9.936C100.989 9.712 101.255 9.6 101.563 9.6H123.109C123.417 9.6 123.683 9.712 123.907 9.936C124.131 10.16 124.243 10.426 124.243 10.734V16.656C124.243 16.964 124.131 17.23 123.907 17.454C123.683 17.678 123.417 17.79 123.109 17.79H110.509V20.436H122.185C122.493 20.436 122.759 20.548 122.983 20.772C123.207 20.996 123.319 21.262 123.319 21.57V27.03C123.319 27.338 123.207 27.604 122.983 27.828C122.759 28.052 122.493 28.164 122.185 28.164H110.509V30.81ZM148.07 9.6H156.302C156.61 9.6 156.876 9.712 157.1 9.936C157.324 10.16 157.436 10.426 157.436 10.734V37.866C157.436 38.174 157.324 38.44 157.1 38.664C156.876 38.888 156.61 39 156.302 39H148.07C147.762 39 147.496 38.888 147.272 38.664C147.048 38.44 146.936 38.174 146.936 37.866V28.794H140.132V37.866C140.132 38.174 140.02 38.44 139.796 38.664C139.572 38.888 139.306 39 138.998 39H130.766C130.458 39 130.192 38.902 129.968 38.706C129.744 38.482 129.632 38.202 129.632 37.866V10.734C129.632 10.426 129.744 10.16 129.968 9.936C130.192 9.712 130.458 9.6 130.766 9.6H138.998C139.306 9.6 139.572 9.712 139.796 9.936C140.02 10.16 140.132 10.426 140.132 10.734V19.554H146.936V10.734C146.936 10.426 147.048 10.16 147.272 9.936C147.496 9.712 147.762 9.6 148.07 9.6ZM167.6 9.6H190.616C190.924 9.6 191.19 9.712 191.414 9.936C191.638 10.16 191.75 10.426 191.75 10.734V29.76H193.556C193.864 29.76 194.13 29.872 194.354 30.096C194.578 30.32 194.69 30.586 194.69 30.894V43.032C194.69 43.34 194.578 43.606 194.354 43.83C194.13 44.054 193.864 44.166 193.556 44.166H185.324C185.016 44.166 184.75 44.054 184.526 43.83C184.302 43.606 184.19 43.34 184.19 43.032V39H172.766V43.032C172.766 43.34 172.654 43.606 172.43 43.83C172.206 44.054 171.94 44.166 171.632 44.166H163.4C163.092 44.166 162.826 44.054 162.602 43.83C162.378 43.634 162.266 43.368 162.266 43.032V30.894C162.266 30.586 162.378 30.32 162.602 30.096C162.826 29.872 163.092 29.76 163.4 29.76H163.568C164.408 29.76 165.094 29.48 165.626 28.92C166.186 28.36 166.466 27.562 166.466 26.526V10.734C166.466 10.426 166.578 10.16 166.802 9.936C167.026 9.712 167.292 9.6 167.6 9.6ZM181.25 18.84H176.966V26.568C176.966 28.136 176.84 29.2 176.588 29.76H181.25V18.84ZM208.721 9.6H217.835C218.843 9.6 219.473 10.062 219.725 10.986L229.091 37.782C229.119 37.866 229.133 38.006 229.133 38.202C229.133 38.37 229.035 38.552 228.839 38.748C228.671 38.916 228.461 39 228.209 39H220.439C219.599 39 219.053 38.65 218.801 37.95L217.793 35.178H208.763L207.755 37.95C207.503 38.65 206.957 39 206.117 39H198.347C198.095 39 197.871 38.916 197.675 38.748C197.507 38.552 197.423 38.37 197.423 38.202C197.423 38.006 197.437 37.866 197.465 37.782L206.831 10.986C207.083 10.062 207.713 9.6 208.721 9.6ZM210.905 26.988H215.651L213.257 19.176L210.905 26.988ZM233.634 9.6H246.15C250.182 9.6 253.332 10.468 255.6 12.204C257.868 13.94 259.002 16.502 259.002 19.89C259.002 23.278 257.868 25.784 255.6 27.408C253.36 29.032 250.21 29.844 246.15 29.844H243.42V37.866C243.42 38.174 243.308 38.44 243.084 38.664C242.86 38.888 242.594 39 242.286 39H233.634C233.326 39 233.06 38.888 232.836 38.664C232.612 38.44 232.5 38.174 232.5 37.866V10.734C232.5 10.426 232.612 10.16 232.836 9.936C233.06 9.712 233.326 9.6 233.634 9.6ZM243.21 17.412V22.074H246.15C246.654 22.074 247.102 21.892 247.494 21.528C247.886 21.136 248.082 20.59 248.082 19.89C248.082 19.19 247.928 18.602 247.62 18.126C247.312 17.65 246.822 17.412 246.15 17.412H243.21ZM276.214 39H263.698C263.39 39 263.124 38.888 262.9 38.664C262.676 38.44 262.564 38.174 262.564 37.866V10.734C262.564 10.426 262.676 10.16 262.9 9.936C263.124 9.712 263.39 9.6 263.698 9.6H272.35C272.658 9.6 272.924 9.712 273.148 9.936C273.372 10.16 273.484 10.426 273.484 10.734V18.756H276.214C280.274 18.756 283.424 19.568 285.664 21.192C287.932 22.816 289.066 25.322 289.066 28.71C289.066 32.098 287.932 34.66 285.664 36.396C283.396 38.132 280.246 39 276.214 39ZM273.274 26.526V31.188H276.214C276.886 31.188 277.376 30.95 277.684 30.474C277.992 29.998 278.146 29.41 278.146 28.71C278.146 28.01 277.95 27.478 277.558 27.114C277.166 26.722 276.718 26.526 276.214 26.526H273.274Z" fill="#FF9EA8"/>
<path d="M103.36 58.106C103.724 58.106 104.004 58.288 104.2 58.652C104.396 59.016 104.494 59.478 104.494 60.038C104.494 60.738 104.396 61.284 104.2 61.676C104.004 62.04 103.696 62.292 103.276 62.432C101.26 63.132 99.132 63.482 96.892 63.482C96.164 65.974 95.016 67.878 93.448 69.194C91.908 70.51 90.074 71.168 87.946 71.168C85.65 71.168 83.858 70.496 82.57 69.152C81.282 67.78 80.638 65.694 80.638 62.894C80.638 60.794 81.016 58.918 81.772 57.266C82.556 55.586 83.606 54.284 84.922 53.36C86.238 52.408 87.694 51.932 89.29 51.932C90.13 51.932 90.858 52.086 91.474 52.394C91.082 51.75 90.634 51.134 90.13 50.546C89.654 49.958 89.024 49.23 88.24 48.362C87.232 47.242 86.448 46.332 85.888 45.632C85.328 44.932 84.852 44.162 84.46 43.322C84.068 42.454 83.872 41.558 83.872 40.634C83.872 39.346 84.236 38.324 84.964 37.568C85.692 36.784 86.588 36.196 87.652 35.804C88.716 35.412 90.144 35.006 91.936 34.586C92.832 34.362 93.742 34.124 94.666 33.872C95.59 33.592 96.36 33.298 96.976 32.99C97.144 32.906 97.312 32.864 97.48 32.864C97.872 32.864 98.18 33.116 98.404 33.62C98.656 34.124 98.782 34.712 98.782 35.384C98.782 35.86 98.712 36.294 98.572 36.686C98.432 37.05 98.236 37.316 97.984 37.484C97.256 37.96 96.458 38.31 95.59 38.534C94.75 38.73 93.728 38.912 92.524 39.08C91.208 39.276 90.242 39.5 89.626 39.752C89.038 39.976 88.744 40.424 88.744 41.096C88.744 41.544 88.954 42.062 89.374 42.65C89.822 43.21 90.508 43.994 91.432 45.002C92.664 46.346 93.7 47.564 94.54 48.656C95.38 49.72 96.108 50.98 96.724 52.436C97.368 53.864 97.69 55.39 97.69 57.014C97.69 57.49 97.662 58.176 97.606 59.072C99.146 58.988 100.868 58.694 102.772 58.19C102.94 58.134 103.136 58.106 103.36 58.106ZM87.946 66.758C88.814 66.758 89.612 66.282 90.34 65.33C91.096 64.35 91.698 63.09 92.146 61.55C91.614 60.962 91.208 60.29 90.928 59.534C90.676 58.778 90.55 57.994 90.55 57.182C90.55 56.93 90.578 56.552 90.634 56.048L89.836 56.006C89.136 56.006 88.478 56.3 87.862 56.888C87.274 57.476 86.798 58.302 86.434 59.366C86.07 60.402 85.888 61.578 85.888 62.894C85.888 64.126 86.042 65.078 86.35 65.75C86.686 66.422 87.218 66.758 87.946 66.758ZM119.6 61.634C119.964 61.634 120.244 61.802 120.44 62.138C120.664 62.474 120.776 62.936 120.776 63.524C120.776 64.644 120.51 65.512 119.978 66.128C118.942 67.388 117.472 68.55 115.568 69.614C113.692 70.678 111.676 71.21 109.52 71.21C106.58 71.21 104.298 70.412 102.674 68.816C101.05 67.22 100.238 65.036 100.238 62.264C100.238 60.332 100.644 58.54 101.456 56.888C102.268 55.208 103.388 53.878 104.816 52.898C106.272 51.918 107.91 51.428 109.73 51.428C111.354 51.428 112.656 51.918 113.636 52.898C114.616 53.85 115.106 55.152 115.106 56.804C115.106 58.736 114.406 60.402 113.006 61.802C111.634 63.174 109.296 64.266 105.992 65.078C106.692 66.366 108.022 67.01 109.982 67.01C111.242 67.01 112.67 66.576 114.266 65.708C115.89 64.812 117.29 63.65 118.466 62.222C118.802 61.83 119.18 61.634 119.6 61.634ZM109.016 55.544C107.98 55.544 107.098 56.146 106.37 57.35C105.67 58.554 105.32 60.01 105.32 61.718V61.802C106.972 61.41 108.274 60.822 109.226 60.038C110.178 59.254 110.654 58.344 110.654 57.308C110.654 56.776 110.5 56.356 110.192 56.048C109.912 55.712 109.52 55.544 109.016 55.544ZM140.604 61.634C140.968 61.634 141.248 61.802 141.444 62.138C141.668 62.474 141.78 62.936 141.78 63.524C141.78 64.644 141.514 65.512 140.982 66.128C139.778 67.612 138.476 68.83 137.076 69.782C135.704 70.734 134.136 71.21 132.372 71.21C130.888 71.21 129.684 70.678 128.76 69.614C127.164 70.65 125.498 71.182 123.762 71.21C123.398 76.614 122.572 81.122 121.284 84.734C119.996 88.374 118.106 90.194 115.614 90.194C114.102 90.194 112.982 89.648 112.254 88.556C111.526 87.464 111.162 85.952 111.162 84.02C111.162 81.276 111.792 78.07 113.052 74.402C114.312 70.762 116.258 66.744 118.89 62.348C118.89 58.26 118.862 55.418 118.806 53.822C118.778 53.01 119.1 52.366 119.772 51.89C120.444 51.414 121.284 51.176 122.292 51.176C122.88 51.176 123.3 51.302 123.552 51.554C123.832 51.778 123.986 52.24 124.014 52.94C124.014 53.64 124.028 54.158 124.056 54.494C124.952 53.374 125.834 52.576 126.702 52.1C127.57 51.596 128.494 51.344 129.474 51.344C131.042 51.344 132.316 51.974 133.296 53.234C134.304 54.494 134.808 56.146 134.808 58.19C134.808 59.674 134.57 61.116 134.094 62.516C133.618 63.916 132.96 65.19 132.12 66.338C132.708 66.506 133.198 66.59 133.59 66.59C134.514 66.59 135.396 66.254 136.236 65.582C137.076 64.91 138.154 63.79 139.47 62.222C139.806 61.83 140.184 61.634 140.604 61.634ZM123.972 67.178C124.98 66.954 125.904 66.408 126.744 65.54C127.612 64.644 128.298 63.552 128.802 62.264C129.306 60.948 129.558 59.576 129.558 58.148C129.558 57.308 129.39 56.678 129.054 56.258C128.718 55.81 128.27 55.586 127.71 55.586C126.702 55.586 125.484 56.65 124.056 58.778C124.028 60.01 124.014 61.816 124.014 64.196C124.014 65.484 124 66.478 123.972 67.178ZM115.95 86.078C116.706 86.078 117.336 84.426 117.84 81.122C118.344 77.846 118.666 73.758 118.806 68.858C117.602 71.658 116.65 74.332 115.95 76.88C115.25 79.428 114.9 81.57 114.9 83.306C114.9 84.202 115.012 84.888 115.236 85.364C115.432 85.84 115.67 86.078 115.95 86.078ZM157.129 61.634C157.493 61.634 157.773 61.802 157.969 62.138C158.193 62.474 158.305 62.936 158.305 63.524C158.305 64.644 158.039 65.512 157.507 66.128C156.471 67.388 155.001 68.55 153.097 69.614C151.221 70.678 149.205 71.21 147.049 71.21C144.109 71.21 141.827 70.412 140.203 68.816C138.579 67.22 137.767 65.036 137.767 62.264C137.767 60.332 138.173 58.54 138.985 56.888C139.797 55.208 140.917 53.878 142.345 52.898C143.801 51.918 145.439 51.428 147.259 51.428C148.883 51.428 150.185 51.918 151.165 52.898C152.145 53.85 152.635 55.152 152.635 56.804C152.635 58.736 151.935 60.402 150.535 61.802C149.163 63.174 146.825 64.266 143.521 65.078C144.221 66.366 145.551 67.01 147.511 67.01C148.771 67.01 150.199 66.576 151.795 65.708C153.419 64.812 154.819 63.65 155.995 62.222C156.331 61.83 156.709 61.634 157.129 61.634ZM146.545 55.544C145.509 55.544 144.627 56.146 143.899 57.35C143.199 58.554 142.849 60.01 142.849 61.718V61.802C144.501 61.41 145.803 60.822 146.755 60.038C147.707 59.254 148.183 58.344 148.183 57.308C148.183 56.776 148.029 56.356 147.721 56.048C147.441 55.712 147.049 55.544 146.545 55.544ZM187.939 61.634C188.303 61.634 188.583 61.802 188.779 62.138C189.003 62.474 189.115 62.936 189.115 63.524C189.115 64.672 188.849 65.554 188.317 66.17C187.029 67.682 185.769 68.9 184.537 69.824C183.333 70.748 182.003 71.21 180.547 71.21C179.063 71.21 177.999 70.65 177.355 69.53C176.711 68.41 176.389 66.786 176.389 64.658C176.389 62.81 176.613 60.5 177.061 57.728H176.977C176.277 58.932 175.619 60.29 175.003 61.802C174.387 63.314 173.701 65.106 172.945 67.178L172.231 69.068C171.923 69.908 171.559 70.482 171.139 70.79C170.719 71.07 170.215 71.21 169.627 71.21C169.011 71.21 168.563 71.042 168.283 70.706C168.003 70.37 167.751 69.838 167.527 69.11C167.275 68.27 167.065 67.122 166.897 65.666C166.729 64.182 166.645 62.684 166.645 61.172C166.645 60.248 166.687 59.366 166.771 58.526H166.687C165.987 61.242 165.301 63.482 164.629 65.246C163.957 66.982 163.047 68.41 161.899 69.53C160.751 70.622 159.295 71.168 157.531 71.168C156.047 71.168 154.899 70.65 154.087 69.614C153.303 68.578 152.911 67.276 152.911 65.708C152.911 64.308 153.233 63.146 153.877 62.222C154.521 61.27 155.431 60.794 156.607 60.794C157.727 60.794 158.287 61.172 158.287 61.928C158.287 62.068 158.273 62.18 158.245 62.264C158.021 63.608 157.909 64.56 157.909 65.12C157.909 66.072 158.119 66.548 158.539 66.548C158.931 66.548 159.323 66.268 159.715 65.708C160.107 65.12 160.653 63.86 161.353 61.928C162.305 59.324 163.201 56.664 164.041 53.948C164.321 53.08 164.727 52.45 165.259 52.058C165.819 51.638 166.561 51.428 167.485 51.428C168.269 51.428 168.913 51.582 169.417 51.89C169.949 52.198 170.215 52.702 170.215 53.402C170.215 57.462 170.313 60.556 170.509 62.684H170.593C171.069 61.088 171.811 59.254 172.819 57.182C173.827 55.11 174.625 53.752 175.213 53.108C175.745 52.548 176.277 52.128 176.809 51.848C177.369 51.54 177.985 51.386 178.657 51.386C179.665 51.386 180.351 51.61 180.715 52.058C181.079 52.478 181.261 53.276 181.261 54.452C181.261 55.096 181.247 55.74 181.219 56.384C181.191 57 181.163 57.574 181.135 58.106C181.023 60.178 180.967 61.718 180.967 62.726C180.967 64.322 181.079 65.4 181.303 65.96C181.527 66.52 181.947 66.8 182.563 66.8C183.683 66.8 185.097 65.33 186.805 62.39C187.113 61.886 187.491 61.634 187.939 61.634ZM204.461 61.634C204.825 61.634 205.105 61.802 205.301 62.138C205.525 62.474 205.637 62.936 205.637 63.524C205.637 64.644 205.371 65.512 204.839 66.128C203.803 67.388 202.333 68.55 200.429 69.614C198.553 70.678 196.537 71.21 194.381 71.21C191.441 71.21 189.159 70.412 187.535 68.816C185.911 67.22 185.099 65.036 185.099 62.264C185.099 60.332 185.505 58.54 186.317 56.888C187.129 55.208 188.249 53.878 189.677 52.898C191.133 51.918 192.771 51.428 194.591 51.428C196.215 51.428 197.517 51.918 198.497 52.898C199.477 53.85 199.967 55.152 199.967 56.804C199.967 58.736 199.267 60.402 197.867 61.802C196.495 63.174 194.157 64.266 190.853 65.078C191.553 66.366 192.883 67.01 194.843 67.01C196.103 67.01 197.531 66.576 199.127 65.708C200.751 64.812 202.151 63.65 203.327 62.222C203.663 61.83 204.041 61.634 204.461 61.634ZM193.877 55.544C192.841 55.544 191.959 56.146 191.231 57.35C190.531 58.554 190.181 60.01 190.181 61.718V61.802C191.833 61.41 193.135 60.822 194.087 60.038C195.039 59.254 195.515 58.344 195.515 57.308C195.515 56.776 195.361 56.356 195.053 56.048C194.773 55.712 194.381 55.544 193.877 55.544ZM224.393 61.634C224.757 61.634 225.037 61.802 225.233 62.138C225.457 62.474 225.569 62.936 225.569 63.524C225.569 64.644 225.303 65.512 224.771 66.128C223.483 67.612 222.153 68.83 220.781 69.782C219.437 70.734 217.897 71.21 216.161 71.21C214.705 71.21 213.683 70.762 213.095 69.866C212.507 68.97 212.213 67.626 212.213 65.834C212.213 65.078 212.283 64.168 212.423 63.104C209.959 63.104 208.251 63.076 207.299 63.02C207.243 63.804 207.215 64.35 207.215 64.658V65.54C207.187 67.276 207.145 68.494 207.089 69.194C207.033 69.894 206.865 70.412 206.585 70.748C206.305 71.056 205.843 71.21 205.199 71.21C204.135 71.21 203.379 70.65 202.931 69.53C202.511 68.41 202.301 66.618 202.301 64.154C202.301 60.514 202.819 57.056 203.855 53.78C204.107 52.968 204.513 52.38 205.073 52.016C205.633 51.624 206.445 51.428 207.509 51.428C208.069 51.428 208.461 51.498 208.685 51.638C208.909 51.778 209.021 52.044 209.021 52.436C209.021 52.884 208.811 53.892 208.391 55.46C208.167 56.384 207.957 57.504 207.761 58.82H213.137C213.417 57.504 213.823 55.824 214.355 53.78C214.579 52.94 214.915 52.338 215.363 51.974C215.839 51.61 216.539 51.428 217.463 51.428C218.107 51.428 218.555 51.512 218.807 51.68C219.059 51.82 219.185 52.1 219.185 52.52C219.185 53.22 218.835 55.138 218.135 58.274C217.351 61.858 216.959 64.07 216.959 64.91C216.959 65.442 217.071 65.862 217.295 66.17C217.519 66.45 217.813 66.59 218.177 66.59C218.737 66.59 219.395 66.254 220.151 65.582C220.935 64.882 221.971 63.762 223.259 62.222C223.595 61.83 223.973 61.634 224.393 61.634ZM244.327 61.634C244.691 61.634 244.971 61.802 245.167 62.138C245.391 62.474 245.503 62.936 245.503 63.524C245.503 64.644 245.237 65.512 244.705 66.128C243.417 67.612 242.087 68.83 240.715 69.782C239.371 70.734 237.831 71.21 236.095 71.21C234.639 71.21 233.617 70.762 233.029 69.866C232.441 68.97 232.147 67.626 232.147 65.834C232.147 65.078 232.217 64.168 232.357 63.104C229.893 63.104 228.185 63.076 227.233 63.02C227.177 63.804 227.149 64.35 227.149 64.658V65.54C227.121 67.276 227.079 68.494 227.023 69.194C226.967 69.894 226.799 70.412 226.519 70.748C226.239 71.056 225.777 71.21 225.133 71.21C224.069 71.21 223.313 70.65 222.865 69.53C222.445 68.41 222.235 66.618 222.235 64.154C222.235 60.514 222.753 57.056 223.789 53.78C224.041 52.968 224.447 52.38 225.007 52.016C225.567 51.624 226.379 51.428 227.443 51.428C228.003 51.428 228.395 51.498 228.619 51.638C228.843 51.778 228.955 52.044 228.955 52.436C228.955 52.884 228.745 53.892 228.325 55.46C228.101 56.384 227.891 57.504 227.695 58.82H233.071C233.351 57.504 233.757 55.824 234.289 53.78C234.513 52.94 234.849 52.338 235.297 51.974C235.773 51.61 236.473 51.428 237.397 51.428C238.041 51.428 238.489 51.512 238.741 51.68C238.993 51.82 239.119 52.1 239.119 52.52C239.119 53.22 238.769 55.138 238.069 58.274C237.285 61.858 236.893 64.07 236.893 64.91C236.893 65.442 237.005 65.862 237.229 66.17C237.453 66.45 237.747 66.59 238.111 66.59C238.671 66.59 239.329 66.254 240.085 65.582C240.869 64.882 241.905 63.762 243.193 62.222C243.529 61.83 243.907 61.634 244.327 61.634ZM263.504 58.106C263.868 58.106 264.148 58.288 264.344 58.652C264.54 59.016 264.638 59.478 264.638 60.038C264.638 61.382 264.232 62.18 263.42 62.432C261.74 63.02 259.892 63.356 257.876 63.44C257.344 65.792 256.294 67.682 254.726 69.11C253.158 70.51 251.38 71.21 249.392 71.21C247.712 71.21 246.27 70.804 245.066 69.992C243.89 69.18 242.994 68.102 242.378 66.758C241.762 65.414 241.454 63.958 241.454 62.39C241.454 60.262 241.86 58.372 242.672 56.72C243.484 55.04 244.604 53.738 246.032 52.814C247.46 51.862 249.042 51.386 250.778 51.386C252.906 51.386 254.614 52.128 255.902 53.612C257.218 55.068 257.988 56.874 258.212 59.03C259.528 58.946 261.096 58.666 262.916 58.19C263.14 58.134 263.336 58.106 263.504 58.106ZM249.728 66.758C250.624 66.758 251.394 66.394 252.038 65.666C252.71 64.938 253.158 63.888 253.382 62.516C252.514 61.928 251.842 61.158 251.366 60.206C250.918 59.254 250.694 58.246 250.694 57.182C250.694 56.734 250.736 56.286 250.82 55.838H250.61C249.49 55.838 248.552 56.384 247.796 57.476C247.068 58.54 246.704 60.052 246.704 62.012C246.704 63.552 246.998 64.728 247.586 65.54C248.202 66.352 248.916 66.758 249.728 66.758ZM269.056 71.21C266.312 71.21 264.17 70.44 262.63 68.9C261.118 67.332 260.362 65.274 260.362 62.726C260.362 60.458 260.81 58.47 261.706 56.762C262.602 55.054 263.764 53.738 265.192 52.814C266.62 51.89 268.118 51.428 269.686 51.428C271.226 51.428 272.416 51.89 273.256 52.814C274.124 53.71 274.558 54.872 274.558 56.3C274.558 57.476 274.292 58.47 273.76 59.282C273.256 60.094 272.584 60.5 271.744 60.5C271.212 60.5 270.778 60.374 270.442 60.122C270.134 59.87 269.98 59.52 269.98 59.072C269.98 58.876 270.008 58.652 270.064 58.4C270.12 58.148 270.162 57.966 270.19 57.854C270.33 57.434 270.4 57.042 270.4 56.678C270.4 56.314 270.302 56.034 270.106 55.838C269.938 55.642 269.686 55.544 269.35 55.544C268.706 55.544 268.104 55.838 267.544 56.426C266.984 56.986 266.536 57.756 266.2 58.736C265.864 59.716 265.696 60.794 265.696 61.97C265.696 65.218 267.11 66.842 269.938 66.842C271.086 66.842 272.318 66.464 273.634 65.708C274.978 64.924 276.294 63.762 277.582 62.222C277.918 61.83 278.296 61.634 278.716 61.634C279.08 61.634 279.36 61.802 279.556 62.138C279.78 62.474 279.892 62.936 279.892 63.524C279.892 64.588 279.626 65.456 279.094 66.128C277.778 67.752 276.196 69.012 274.348 69.908C272.528 70.776 270.764 71.21 269.056 71.21ZM279.478 71.21C278.414 71.21 277.658 70.65 277.21 69.53C276.79 68.41 276.58 66.618 276.58 64.154C276.58 60.514 277.098 57.056 278.134 53.78C278.386 52.968 278.792 52.38 279.352 52.016C279.94 51.624 280.752 51.428 281.788 51.428C282.348 51.428 282.74 51.498 282.964 51.638C283.188 51.778 283.3 52.044 283.3 52.436C283.3 52.884 283.09 53.892 282.67 55.46C282.39 56.58 282.166 57.56 281.998 58.4C281.83 59.212 281.69 60.234 281.578 61.466C282.334 59.282 283.23 57.434 284.266 55.922C285.33 54.41 286.408 53.29 287.5 52.562C288.62 51.806 289.67 51.428 290.65 51.428C291.63 51.428 292.316 51.652 292.708 52.1C293.128 52.548 293.338 53.234 293.338 54.158C293.338 55.054 293.072 56.678 292.54 59.03C292.316 60.038 292.162 60.794 292.078 61.298C293.478 57.854 295.032 55.348 296.74 53.78C298.448 52.212 300.044 51.428 301.528 51.428C303.348 51.428 304.258 52.338 304.258 54.158C304.258 55.25 303.95 57.224 303.334 60.08C302.802 62.516 302.536 64.126 302.536 64.91C302.536 66.03 302.942 66.59 303.754 66.59C304.314 66.59 304.972 66.254 305.728 65.582C306.512 64.882 307.548 63.762 308.836 62.222C309.172 61.83 309.55 61.634 309.97 61.634C310.334 61.634 310.614 61.802 310.81 62.138C311.034 62.474 311.146 62.936 311.146 63.524C311.146 64.644 310.88 65.512 310.348 66.128C309.144 67.612 307.842 68.83 306.442 69.782C305.07 70.734 303.502 71.21 301.738 71.21C300.31 71.21 299.232 70.804 298.504 69.992C297.776 69.152 297.412 67.948 297.412 66.38C297.412 65.596 297.608 64.196 298 62.18C298.364 60.416 298.546 59.198 298.546 58.526C298.546 58.078 298.392 57.854 298.084 57.854C297.72 57.854 297.202 58.33 296.53 59.282C295.858 60.206 295.186 61.438 294.514 62.978C293.842 64.518 293.296 66.142 292.876 67.85C292.568 69.194 292.204 70.09 291.784 70.538C291.392 70.986 290.748 71.21 289.852 71.21C288.928 71.21 288.228 70.776 287.752 69.908C287.304 69.012 287.08 67.934 287.08 66.674C287.08 65.61 287.22 64.07 287.5 62.054C287.724 60.262 287.836 59.086 287.836 58.526C287.836 58.078 287.682 57.854 287.374 57.854C286.954 57.854 286.422 58.358 285.778 59.366C285.134 60.374 284.504 61.662 283.888 63.23C283.3 64.798 282.824 66.338 282.46 67.85C282.152 69.166 281.788 70.062 281.368 70.538C280.976 70.986 280.346 71.21 279.478 71.21ZM312.034 71.21C310.774 71.21 309.738 70.636 308.926 69.488C308.142 68.312 307.75 66.856 307.75 65.12C307.75 63.02 307.89 61.102 308.17 59.366C308.45 57.602 308.912 55.74 309.556 53.78C309.836 52.94 310.228 52.338 310.732 51.974C311.236 51.61 312.034 51.428 313.126 51.428C313.742 51.428 314.162 51.526 314.386 51.722C314.638 51.918 314.764 52.212 314.764 52.604C314.764 52.828 314.61 53.584 314.302 54.872C314.022 55.908 313.798 56.846 313.63 57.686C313.07 60.626 312.79 62.586 312.79 63.566C312.79 64.154 312.86 64.574 313 64.826C313.14 65.05 313.364 65.162 313.672 65.162C314.092 65.162 314.61 64.742 315.226 63.902C315.87 63.062 316.542 61.788 317.242 60.08C317.97 58.372 318.67 56.272 319.342 53.78C319.566 52.94 319.902 52.338 320.35 51.974C320.826 51.61 321.526 51.428 322.45 51.428C323.094 51.428 323.542 51.512 323.794 51.68C324.046 51.82 324.172 52.1 324.172 52.52C324.172 53.22 323.822 55.138 323.122 58.274C322.338 61.858 321.946 64.07 321.946 64.91C321.946 65.442 322.058 65.862 322.282 66.17C322.506 66.45 322.8 66.59 323.164 66.59C323.724 66.59 324.382 66.254 325.138 65.582C325.922 64.882 326.958 63.762 328.246 62.222C328.582 61.83 328.96 61.634 329.38 61.634C329.744 61.634 330.024 61.802 330.22 62.138C330.444 62.474 330.556 62.936 330.556 63.524C330.556 64.644 330.29 65.512 329.758 66.128C328.554 67.612 327.252 68.83 325.852 69.782C324.48 70.734 322.912 71.21 321.148 71.21C319.804 71.21 318.81 70.692 318.166 69.656C317.55 68.62 317.242 67.164 317.242 65.288C316.766 67.192 316.052 68.662 315.1 69.698C314.148 70.706 313.126 71.21 312.034 71.21Z" fill="#2A9C9E"/>
</svg>
