<svg width="30" height="30" viewBox="0 0 30 30" fill="none" xmlns="http://www.w3.org/2000/svg">
<circle cx="15" cy="15" r="15" fill="#FF9EA8"/>
<path d="M7.26303 15.2399L10.7116 16.5175L12.0559 20.8148C12.1144 21.1051 12.4651 21.1632 12.6989 20.989L14.6278 19.4211C14.8031 19.2468 15.0954 19.2468 15.3292 19.4211L18.7777 21.9181C19.0115 22.0924 19.3622 21.9762 19.4207 21.6859L21.9925 9.49079C22.0509 9.20043 21.7587 8.91008 21.4664 9.02622L7.26303 14.485C6.91232 14.6011 6.91232 15.1238 7.26303 15.2399ZM11.8806 15.8787L18.6608 11.7556C18.7777 11.6975 18.8946 11.8717 18.7777 11.9298L13.225 17.0982C13.0496 17.2724 12.8742 17.5047 12.8742 17.7951L12.6989 19.1888C12.6989 19.363 12.4066 19.4211 12.3482 19.1888L11.6468 16.6336C11.4714 16.3433 11.5884 15.9948 11.8806 15.8787Z" fill="white"/>
</svg>
