<svg width="29" height="30" viewBox="0 0 29 30" fill="none" xmlns="http://www.w3.org/2000/svg">
<path d="M14.5 15.7895C16.0618 15.7895 17.5886 15.3265 18.8872 14.459C20.1858 13.5915 21.198 12.3585 21.7956 10.9159C22.3933 9.47335 22.5497 7.88598 22.245 6.35455C21.9403 4.82312 21.1882 3.41642 20.0838 2.31232C18.9795 1.20822 17.5724 0.456319 16.0406 0.151699C14.5088 -0.152921 12.921 0.00342065 11.478 0.600955C10.0351 1.19849 8.8018 2.21038 7.9341 3.50866C7.06639 4.80694 6.60326 6.33331 6.60326 7.89474C6.60576 9.98778 7.43854 11.9944 8.91893 13.4744C10.3993 14.9544 12.4064 15.787 14.5 15.7895ZM14.5 3.1579C15.4371 3.1579 16.3531 3.43571 17.1323 3.9562C17.9115 4.47669 18.5188 5.21648 18.8774 6.08203C19.236 6.94757 19.3298 7.89999 19.147 8.81885C18.9642 9.73771 18.5129 10.5817 17.8503 11.2442C17.1877 11.9067 16.3434 12.3578 15.4243 12.5406C14.5053 12.7233 13.5526 12.6295 12.6868 12.271C11.8211 11.9125 11.0811 11.3054 10.5605 10.5264C10.0398 9.74742 9.76195 8.8316 9.76195 7.89474C9.76195 6.63845 10.2611 5.43362 11.1497 4.54529C12.0382 3.65696 13.2434 3.1579 14.5 3.1579Z" fill="#2A9C9E"/>
<path d="M28.692 28.1605C28.0043 24.9643 26.1955 22.1194 23.5927 20.1401C20.9898 18.1608 17.7646 17.1777 14.5 17.3684C11.2354 17.1777 8.01015 18.1608 5.40732 20.1401C2.80448 22.1194 0.995732 24.9643 0.307973 28.1605C0.1468 29.1232 0.889018 30 1.86508 30H27.1349C28.111 30 28.8532 29.1232 28.692 28.1605ZM3.99417 26.8421C5.01285 24.4342 7.7088 20.5263 14.5 20.5263C21.2296 20.5263 23.9492 24.4311 24.9885 26.8421H3.99417Z" fill="#2A9C9E"/>
</svg>
