<svg width="30" height="30" viewBox="0 0 30 30" fill="none" xmlns="http://www.w3.org/2000/svg">
<g clip-path="url(#clip0_115_678)">
<circle cx="15" cy="15" r="15" fill="#FF9EA8"/>
<path d="M16.2592 21C10.451 21 7.13804 16.8709 7 10H9.90943C10.005 15.043 12.1499 17.1792 13.8488 17.6196V10H16.5884V14.3493C18.2661 14.1622 20.0287 12.1802 20.6234 10H23.3629C23.1388 11.1307 22.6922 12.2013 22.0509 13.1448C21.4096 14.0883 20.5874 14.8845 19.6359 15.4835C20.698 16.0308 21.6362 16.8055 22.3885 17.7564C23.1408 18.7073 23.69 19.8128 24 21H20.9844C20.7061 19.9688 20.1405 19.0458 19.3585 18.3465C18.5765 17.6472 17.6129 17.2029 16.5884 17.0691V21H16.2592Z" fill="white"/>
</g>
<defs>
<clipPath id="clip0_115_678">
<rect width="30" height="30" fill="white"/>
</clipPath>
</defs>
</svg>
