<svg width="1440" height="880" viewBox="0 0 1440 880" fill="none" xmlns="http://www.w3.org/2000/svg"><g filter="url(#filter0_f_97_927)"><path d="M230.737 166.122C467.606 166.122 596.366 403.188 596.366 602.556C596.366 801.923 356.757 695.994 119.888 695.994C-116.981 695.994 -94.2663 610.403 -94.2663 411.036C-94.2663 211.668 -6.13128 166.122 230.737 166.122Z" fill="#D7E7F8"/></g><g filter="url(#filter1_f_97_927)"><path d="M953.692 270.113C1145.21 443.642 1405.21 248.337 1405.21 447.704C1405.21 647.071 1213.19 808.69 976.326 808.69C739.457 808.69 584 504.882 584 305.515C584 106.148 824.271 53.2745 953.692 270.113Z" fill="#E6DDF7"/></g><g filter="url(#filter2_f_97_927)"><path d="M241.473 507.957C478.342 507.957 121.153 774.924 706.344 855.014C861.117 904.345 514.324 1216 277.456 1216C40.5869 1216 169.062 1175.95 -151.433 855.014C-435.996 570.055 4.60435 507.957 241.473 507.957Z" fill="#F8DFEA"/></g><g filter="url(#filter3_f_97_927)"><path d="M809.545 568.093C906.46 650.536 945.046 863.482 875.718 944.98C806.39 1026.48 655.401 945.665 558.485 863.221C461.57 780.778 317.697 714.215 387.025 632.717C456.353 551.219 712.63 485.649 809.545 568.093Z" fill="#FAE6E1"/></g><defs><filter id="filter0_f_97_927" x="-242.048" y="18.9284" width="985.608" height="852.375" filterUnits="userSpaceOnUse" color-interpolation-filters="sRGB"><feFlood flood-opacity="0" result="BackgroundImageFix"/><feBlend mode="normal" in="SourceGraphic" in2="BackgroundImageFix" result="shape"/><feGaussianBlur stdDeviation="73.5968" result="effect1_foregroundBlur_97_927"/></filter><filter id="filter1_f_97_927" x="436.806" y="-17.1941" width="1115.6" height="973.078" filterUnits="userSpaceOnUse" color-interpolation-filters="sRGB"><feFlood flood-opacity="0" result="BackgroundImageFix"/><feBlend mode="normal" in="SourceGraphic" in2="BackgroundImageFix" result="shape"/><feGaussianBlur stdDeviation="73.5968" result="effect1_foregroundBlur_97_927"/></filter><filter id="filter2_f_97_927" x="-464.79" y="287.166" width="1430.38" height="1149.62" filterUnits="userSpaceOnUse" color-interpolation-filters="sRGB"><feFlood flood-opacity="0" result="BackgroundImageFix"/><feBlend mode="normal" in="SourceGraphic" in2="BackgroundImageFix" result="shape"/><feGaussianBlur stdDeviation="110.395" result="effect1_foregroundBlur_97_927"/></filter><filter id="filter3_f_97_927" x="221.595" y="382.884" width="836.579" height="743.166" filterUnits="userSpaceOnUse" color-interpolation-filters="sRGB"><feFlood flood-opacity="0" result="BackgroundImageFix"/><feBlend mode="normal" in="SourceGraphic" in2="BackgroundImageFix" result="shape"/><feGaussianBlur stdDeviation="73.5968" result="effect1_foregroundBlur_97_927"/></filter></defs></svg>