<svg xmlns="http://www.w3.org/2000/svg" xmlns:xlink="http://www.w3.org/1999/xlink"><defs><clipPath id="clip0_202_912"><rect width="77" height="88" fill="white"/></clipPath><clipPath id="clip0_93_436"><rect width="30" height="30" fill="white"/></clipPath><clipPath id="clip0_115_678"><rect width="30" height="30" fill="white"/></clipPath></defs><symbol id="arrow-slider" viewBox="0 0 20 11"><g fill="none"><path fill-rule="evenodd" clip-rule="evenodd" d="M14.0405 0.764984C14.3227 0.439103 14.8089 0.40975 15.1264 0.699422L19.7418 4.90994C19.906 5.05976 20 5.2745 20 5.5C20 5.7255 19.906 5.94024 19.7418 6.09006L15.1264 10.3006C14.8089 10.5903 14.3227 10.5609 14.0405 10.235C13.7582 9.90913 13.7868 9.41013 14.1043 9.12046L17.2075 6.28947H0.769231C0.344396 6.28947 0 5.93601 0 5.5C0 5.06399 0.344396 4.71053 0.769231 4.71053H17.2075L14.1043 1.87954C13.7868 1.58987 13.7582 1.09086 14.0405 0.764984Z" fill="#384A68"/></g></symbol><symbol id="arrow" viewBox="0 0 20 10"><g fill="none"><path d="M18.5799 1.15088L11.5166 8.21422C10.6824 9.04839 9.31742 9.04839 8.48326 8.21422L1.41992 1.15088" stroke="#384A68" stroke-width="1.96324" stroke-miterlimit="10" stroke-linecap="round" stroke-linejoin="round"/></g></symbol><symbol id="check-icon" viewBox="0 0 26 26"><g fill="none"><path d="M13.0003 23.8333C18.9587 23.8333 23.8337 18.9583 23.8337 13C23.8337 7.04163 18.9587 2.16663 13.0003 2.16663C7.04199 2.16663 2.16699 7.04163 2.16699 13C2.16699 18.9583 7.04199 23.8333 13.0003 23.8333Z" stroke="#008000" stroke-linecap="round" stroke-linejoin="round"/><path d="M8.39551 13.0001L11.4613 16.0659L17.6038 9.93427" stroke="#008000" stroke-width="1.5" stroke-linecap="round" stroke-linejoin="round"/></g></symbol><symbol id="check-no-icon" viewBox="0 0 26 26"><g fill="none"><path d="M13 9.75006V15.1667" stroke="#EAE206" stroke-width="1.30882" stroke-linecap="round" stroke-linejoin="round"/><path d="M12.9941 18.4167H13.0039" stroke="#EAE206" stroke-width="1.30882" stroke-linecap="round" stroke-linejoin="round"/><path d="M13.4329 24.2668C19.3913 24.2668 24.2663 19.3918 24.2663 13.4334C24.2663 7.4751 19.3913 2.6001 13.4329 2.6001C7.47461 2.6001 2.59961 7.4751 2.59961 13.4334C2.59961 19.3918 7.47461 24.2668 13.4329 24.2668Z" stroke="#EAE206" stroke-width="1.30882" stroke-linecap="round" stroke-linejoin="round"/></g></symbol><symbol id="icon-close" viewBox="0 0 20 20"><g fill="none"><path d="M.293 18.291a1 1 0 101.414 1.414L10 11.413l8.292 8.292a1 1 0 101.414-1.414l-8.292-8.292 8.292-8.292A1 1 0 1018.291.293L9.999 8.585 1.707.293A1 1 0 10.293 1.707L8.585 10 .293 18.291z"/></g></symbol><symbol id="logo-text" viewBox="0 0 331 92"><g fill="none"><path d="M30.24 37.614C30.324 37.754 30.366 37.936 30.366 38.16C30.366 38.356 30.268 38.552 30.072 38.748C29.904 38.916 29.694 39 29.442 39H19.866C19.054 39 18.48 38.678 18.144 38.034L13.02 28.878V37.866C13.02 38.174 12.908 38.44 12.684 38.664C12.46 38.888 12.194 39 11.886 39H3.864C3.556 39 3.29 38.888 3.066 38.664C2.842 38.44 2.73 38.174 2.73 37.866V10.734C2.73 10.426 2.842 10.16 3.066 9.936C3.29 9.712 3.556 9.6 3.864 9.6H11.886C12.194 9.6 12.46 9.712 12.684 9.936C12.908 10.16 13.02 10.426 13.02 10.734V19.05L17.766 10.524C18.074 9.908 18.634 9.6 19.446 9.6H28.728C28.98 9.6 29.19 9.698 29.358 9.894C29.554 10.062 29.652 10.258 29.652 10.482C29.652 10.678 29.61 10.846 29.526 10.986L21.966 23.67L30.24 37.614ZM42.7307 9.6H51.8447C52.8527 9.6 53.4827 10.062 53.7347 10.986L63.1007 37.782C63.1287 37.866 63.1427 38.006 63.1427 38.202C63.1427 38.37 63.0447 38.552 62.8487 38.748C62.6807 38.916 62.4707 39 62.2187 39H54.4487C53.6087 39 53.0627 38.65 52.8107 37.95L51.8027 35.178H42.7727L41.7647 37.95C41.5127 38.65 40.9667 39 40.1267 39H32.3567C32.1047 39 31.8807 38.916 31.6847 38.748C31.5167 38.552 31.4327 38.37 31.4327 38.202C31.4327 38.006 31.4467 37.866 31.4747 37.782L40.8407 10.986C41.0927 10.062 41.7227 9.6 42.7307 9.6ZM44.9147 26.988H49.6607L47.2667 19.176L44.9147 26.988ZM65.7953 39.42C65.4873 39.42 65.2073 39.308 64.9553 39.084C64.7313 38.86 64.6193 38.594 64.6193 38.286V32.112C64.6193 31.804 64.7313 31.538 64.9553 31.314C65.1793 31.09 65.4453 30.978 65.7533 30.978C67.8253 30.978 68.8613 29.9 68.8613 27.744V10.734C68.8613 10.426 68.9733 10.16 69.1973 9.936C69.4213 9.712 69.6873 9.6 69.9953 9.6H93.8513C94.1593 9.6 94.4253 9.712 94.6493 9.936C94.8733 10.16 94.9853 10.426 94.9853 10.734V37.866C94.9853 38.174 94.8733 38.44 94.6493 38.664C94.4253 38.888 94.1593 39 93.8513 39H85.6193C85.3113 39 85.0453 38.888 84.8213 38.664C84.5973 38.44 84.4853 38.174 84.4853 37.866V18.84H79.3613V27.618C79.3613 31.538 78.1433 34.492 75.7073 36.48C73.2713 38.44 69.9673 39.42 65.7953 39.42ZM110.509 30.81H123.445C123.753 30.81 124.019 30.922 124.243 31.146C124.467 31.37 124.579 31.636 124.579 31.944V37.866C124.579 38.174 124.467 38.44 124.243 38.664C124.019 38.888 123.753 39 123.445 39H101.563C101.255 39 100.989 38.888 100.765 38.664C100.541 38.44 100.429 38.174 100.429 37.866V10.734C100.429 10.426 100.541 10.16 100.765 9.936C100.989 9.712 101.255 9.6 101.563 9.6H123.109C123.417 9.6 123.683 9.712 123.907 9.936C124.131 10.16 124.243 10.426 124.243 10.734V16.656C124.243 16.964 124.131 17.23 123.907 17.454C123.683 17.678 123.417 17.79 123.109 17.79H110.509V20.436H122.185C122.493 20.436 122.759 20.548 122.983 20.772C123.207 20.996 123.319 21.262 123.319 21.57V27.03C123.319 27.338 123.207 27.604 122.983 27.828C122.759 28.052 122.493 28.164 122.185 28.164H110.509V30.81ZM148.07 9.6H156.302C156.61 9.6 156.876 9.712 157.1 9.936C157.324 10.16 157.436 10.426 157.436 10.734V37.866C157.436 38.174 157.324 38.44 157.1 38.664C156.876 38.888 156.61 39 156.302 39H148.07C147.762 39 147.496 38.888 147.272 38.664C147.048 38.44 146.936 38.174 146.936 37.866V28.794H140.132V37.866C140.132 38.174 140.02 38.44 139.796 38.664C139.572 38.888 139.306 39 138.998 39H130.766C130.458 39 130.192 38.902 129.968 38.706C129.744 38.482 129.632 38.202 129.632 37.866V10.734C129.632 10.426 129.744 10.16 129.968 9.936C130.192 9.712 130.458 9.6 130.766 9.6H138.998C139.306 9.6 139.572 9.712 139.796 9.936C140.02 10.16 140.132 10.426 140.132 10.734V19.554H146.936V10.734C146.936 10.426 147.048 10.16 147.272 9.936C147.496 9.712 147.762 9.6 148.07 9.6ZM167.6 9.6H190.616C190.924 9.6 191.19 9.712 191.414 9.936C191.638 10.16 191.75 10.426 191.75 10.734V29.76H193.556C193.864 29.76 194.13 29.872 194.354 30.096C194.578 30.32 194.69 30.586 194.69 30.894V43.032C194.69 43.34 194.578 43.606 194.354 43.83C194.13 44.054 193.864 44.166 193.556 44.166H185.324C185.016 44.166 184.75 44.054 184.526 43.83C184.302 43.606 184.19 43.34 184.19 43.032V39H172.766V43.032C172.766 43.34 172.654 43.606 172.43 43.83C172.206 44.054 171.94 44.166 171.632 44.166H163.4C163.092 44.166 162.826 44.054 162.602 43.83C162.378 43.634 162.266 43.368 162.266 43.032V30.894C162.266 30.586 162.378 30.32 162.602 30.096C162.826 29.872 163.092 29.76 163.4 29.76H163.568C164.408 29.76 165.094 29.48 165.626 28.92C166.186 28.36 166.466 27.562 166.466 26.526V10.734C166.466 10.426 166.578 10.16 166.802 9.936C167.026 9.712 167.292 9.6 167.6 9.6ZM181.25 18.84H176.966V26.568C176.966 28.136 176.84 29.2 176.588 29.76H181.25V18.84ZM208.721 9.6H217.835C218.843 9.6 219.473 10.062 219.725 10.986L229.091 37.782C229.119 37.866 229.133 38.006 229.133 38.202C229.133 38.37 229.035 38.552 228.839 38.748C228.671 38.916 228.461 39 228.209 39H220.439C219.599 39 219.053 38.65 218.801 37.95L217.793 35.178H208.763L207.755 37.95C207.503 38.65 206.957 39 206.117 39H198.347C198.095 39 197.871 38.916 197.675 38.748C197.507 38.552 197.423 38.37 197.423 38.202C197.423 38.006 197.437 37.866 197.465 37.782L206.831 10.986C207.083 10.062 207.713 9.6 208.721 9.6ZM210.905 26.988H215.651L213.257 19.176L210.905 26.988ZM233.634 9.6H246.15C250.182 9.6 253.332 10.468 255.6 12.204C257.868 13.94 259.002 16.502 259.002 19.89C259.002 23.278 257.868 25.784 255.6 27.408C253.36 29.032 250.21 29.844 246.15 29.844H243.42V37.866C243.42 38.174 243.308 38.44 243.084 38.664C242.86 38.888 242.594 39 242.286 39H233.634C233.326 39 233.06 38.888 232.836 38.664C232.612 38.44 232.5 38.174 232.5 37.866V10.734C232.5 10.426 232.612 10.16 232.836 9.936C233.06 9.712 233.326 9.6 233.634 9.6ZM243.21 17.412V22.074H246.15C246.654 22.074 247.102 21.892 247.494 21.528C247.886 21.136 248.082 20.59 248.082 19.89C248.082 19.19 247.928 18.602 247.62 18.126C247.312 17.65 246.822 17.412 246.15 17.412H243.21ZM276.214 39H263.698C263.39 39 263.124 38.888 262.9 38.664C262.676 38.44 262.564 38.174 262.564 37.866V10.734C262.564 10.426 262.676 10.16 262.9 9.936C263.124 9.712 263.39 9.6 263.698 9.6H272.35C272.658 9.6 272.924 9.712 273.148 9.936C273.372 10.16 273.484 10.426 273.484 10.734V18.756H276.214C280.274 18.756 283.424 19.568 285.664 21.192C287.932 22.816 289.066 25.322 289.066 28.71C289.066 32.098 287.932 34.66 285.664 36.396C283.396 38.132 280.246 39 276.214 39ZM273.274 26.526V31.188H276.214C276.886 31.188 277.376 30.95 277.684 30.474C277.992 29.998 278.146 29.41 278.146 28.71C278.146 28.01 277.95 27.478 277.558 27.114C277.166 26.722 276.718 26.526 276.214 26.526H273.274Z" fill="#FF9EA8"/><path d="M103.36 58.106C103.724 58.106 104.004 58.288 104.2 58.652C104.396 59.016 104.494 59.478 104.494 60.038C104.494 60.738 104.396 61.284 104.2 61.676C104.004 62.04 103.696 62.292 103.276 62.432C101.26 63.132 99.132 63.482 96.892 63.482C96.164 65.974 95.016 67.878 93.448 69.194C91.908 70.51 90.074 71.168 87.946 71.168C85.65 71.168 83.858 70.496 82.57 69.152C81.282 67.78 80.638 65.694 80.638 62.894C80.638 60.794 81.016 58.918 81.772 57.266C82.556 55.586 83.606 54.284 84.922 53.36C86.238 52.408 87.694 51.932 89.29 51.932C90.13 51.932 90.858 52.086 91.474 52.394C91.082 51.75 90.634 51.134 90.13 50.546C89.654 49.958 89.024 49.23 88.24 48.362C87.232 47.242 86.448 46.332 85.888 45.632C85.328 44.932 84.852 44.162 84.46 43.322C84.068 42.454 83.872 41.558 83.872 40.634C83.872 39.346 84.236 38.324 84.964 37.568C85.692 36.784 86.588 36.196 87.652 35.804C88.716 35.412 90.144 35.006 91.936 34.586C92.832 34.362 93.742 34.124 94.666 33.872C95.59 33.592 96.36 33.298 96.976 32.99C97.144 32.906 97.312 32.864 97.48 32.864C97.872 32.864 98.18 33.116 98.404 33.62C98.656 34.124 98.782 34.712 98.782 35.384C98.782 35.86 98.712 36.294 98.572 36.686C98.432 37.05 98.236 37.316 97.984 37.484C97.256 37.96 96.458 38.31 95.59 38.534C94.75 38.73 93.728 38.912 92.524 39.08C91.208 39.276 90.242 39.5 89.626 39.752C89.038 39.976 88.744 40.424 88.744 41.096C88.744 41.544 88.954 42.062 89.374 42.65C89.822 43.21 90.508 43.994 91.432 45.002C92.664 46.346 93.7 47.564 94.54 48.656C95.38 49.72 96.108 50.98 96.724 52.436C97.368 53.864 97.69 55.39 97.69 57.014C97.69 57.49 97.662 58.176 97.606 59.072C99.146 58.988 100.868 58.694 102.772 58.19C102.94 58.134 103.136 58.106 103.36 58.106ZM87.946 66.758C88.814 66.758 89.612 66.282 90.34 65.33C91.096 64.35 91.698 63.09 92.146 61.55C91.614 60.962 91.208 60.29 90.928 59.534C90.676 58.778 90.55 57.994 90.55 57.182C90.55 56.93 90.578 56.552 90.634 56.048L89.836 56.006C89.136 56.006 88.478 56.3 87.862 56.888C87.274 57.476 86.798 58.302 86.434 59.366C86.07 60.402 85.888 61.578 85.888 62.894C85.888 64.126 86.042 65.078 86.35 65.75C86.686 66.422 87.218 66.758 87.946 66.758ZM119.6 61.634C119.964 61.634 120.244 61.802 120.44 62.138C120.664 62.474 120.776 62.936 120.776 63.524C120.776 64.644 120.51 65.512 119.978 66.128C118.942 67.388 117.472 68.55 115.568 69.614C113.692 70.678 111.676 71.21 109.52 71.21C106.58 71.21 104.298 70.412 102.674 68.816C101.05 67.22 100.238 65.036 100.238 62.264C100.238 60.332 100.644 58.54 101.456 56.888C102.268 55.208 103.388 53.878 104.816 52.898C106.272 51.918 107.91 51.428 109.73 51.428C111.354 51.428 112.656 51.918 113.636 52.898C114.616 53.85 115.106 55.152 115.106 56.804C115.106 58.736 114.406 60.402 113.006 61.802C111.634 63.174 109.296 64.266 105.992 65.078C106.692 66.366 108.022 67.01 109.982 67.01C111.242 67.01 112.67 66.576 114.266 65.708C115.89 64.812 117.29 63.65 118.466 62.222C118.802 61.83 119.18 61.634 119.6 61.634ZM109.016 55.544C107.98 55.544 107.098 56.146 106.37 57.35C105.67 58.554 105.32 60.01 105.32 61.718V61.802C106.972 61.41 108.274 60.822 109.226 60.038C110.178 59.254 110.654 58.344 110.654 57.308C110.654 56.776 110.5 56.356 110.192 56.048C109.912 55.712 109.52 55.544 109.016 55.544ZM140.604 61.634C140.968 61.634 141.248 61.802 141.444 62.138C141.668 62.474 141.78 62.936 141.78 63.524C141.78 64.644 141.514 65.512 140.982 66.128C139.778 67.612 138.476 68.83 137.076 69.782C135.704 70.734 134.136 71.21 132.372 71.21C130.888 71.21 129.684 70.678 128.76 69.614C127.164 70.65 125.498 71.182 123.762 71.21C123.398 76.614 122.572 81.122 121.284 84.734C119.996 88.374 118.106 90.194 115.614 90.194C114.102 90.194 112.982 89.648 112.254 88.556C111.526 87.464 111.162 85.952 111.162 84.02C111.162 81.276 111.792 78.07 113.052 74.402C114.312 70.762 116.258 66.744 118.89 62.348C118.89 58.26 118.862 55.418 118.806 53.822C118.778 53.01 119.1 52.366 119.772 51.89C120.444 51.414 121.284 51.176 122.292 51.176C122.88 51.176 123.3 51.302 123.552 51.554C123.832 51.778 123.986 52.24 124.014 52.94C124.014 53.64 124.028 54.158 124.056 54.494C124.952 53.374 125.834 52.576 126.702 52.1C127.57 51.596 128.494 51.344 129.474 51.344C131.042 51.344 132.316 51.974 133.296 53.234C134.304 54.494 134.808 56.146 134.808 58.19C134.808 59.674 134.57 61.116 134.094 62.516C133.618 63.916 132.96 65.19 132.12 66.338C132.708 66.506 133.198 66.59 133.59 66.59C134.514 66.59 135.396 66.254 136.236 65.582C137.076 64.91 138.154 63.79 139.47 62.222C139.806 61.83 140.184 61.634 140.604 61.634ZM123.972 67.178C124.98 66.954 125.904 66.408 126.744 65.54C127.612 64.644 128.298 63.552 128.802 62.264C129.306 60.948 129.558 59.576 129.558 58.148C129.558 57.308 129.39 56.678 129.054 56.258C128.718 55.81 128.27 55.586 127.71 55.586C126.702 55.586 125.484 56.65 124.056 58.778C124.028 60.01 124.014 61.816 124.014 64.196C124.014 65.484 124 66.478 123.972 67.178ZM115.95 86.078C116.706 86.078 117.336 84.426 117.84 81.122C118.344 77.846 118.666 73.758 118.806 68.858C117.602 71.658 116.65 74.332 115.95 76.88C115.25 79.428 114.9 81.57 114.9 83.306C114.9 84.202 115.012 84.888 115.236 85.364C115.432 85.84 115.67 86.078 115.95 86.078ZM157.129 61.634C157.493 61.634 157.773 61.802 157.969 62.138C158.193 62.474 158.305 62.936 158.305 63.524C158.305 64.644 158.039 65.512 157.507 66.128C156.471 67.388 155.001 68.55 153.097 69.614C151.221 70.678 149.205 71.21 147.049 71.21C144.109 71.21 141.827 70.412 140.203 68.816C138.579 67.22 137.767 65.036 137.767 62.264C137.767 60.332 138.173 58.54 138.985 56.888C139.797 55.208 140.917 53.878 142.345 52.898C143.801 51.918 145.439 51.428 147.259 51.428C148.883 51.428 150.185 51.918 151.165 52.898C152.145 53.85 152.635 55.152 152.635 56.804C152.635 58.736 151.935 60.402 150.535 61.802C149.163 63.174 146.825 64.266 143.521 65.078C144.221 66.366 145.551 67.01 147.511 67.01C148.771 67.01 150.199 66.576 151.795 65.708C153.419 64.812 154.819 63.65 155.995 62.222C156.331 61.83 156.709 61.634 157.129 61.634ZM146.545 55.544C145.509 55.544 144.627 56.146 143.899 57.35C143.199 58.554 142.849 60.01 142.849 61.718V61.802C144.501 61.41 145.803 60.822 146.755 60.038C147.707 59.254 148.183 58.344 148.183 57.308C148.183 56.776 148.029 56.356 147.721 56.048C147.441 55.712 147.049 55.544 146.545 55.544ZM187.939 61.634C188.303 61.634 188.583 61.802 188.779 62.138C189.003 62.474 189.115 62.936 189.115 63.524C189.115 64.672 188.849 65.554 188.317 66.17C187.029 67.682 185.769 68.9 184.537 69.824C183.333 70.748 182.003 71.21 180.547 71.21C179.063 71.21 177.999 70.65 177.355 69.53C176.711 68.41 176.389 66.786 176.389 64.658C176.389 62.81 176.613 60.5 177.061 57.728H176.977C176.277 58.932 175.619 60.29 175.003 61.802C174.387 63.314 173.701 65.106 172.945 67.178L172.231 69.068C171.923 69.908 171.559 70.482 171.139 70.79C170.719 71.07 170.215 71.21 169.627 71.21C169.011 71.21 168.563 71.042 168.283 70.706C168.003 70.37 167.751 69.838 167.527 69.11C167.275 68.27 167.065 67.122 166.897 65.666C166.729 64.182 166.645 62.684 166.645 61.172C166.645 60.248 166.687 59.366 166.771 58.526H166.687C165.987 61.242 165.301 63.482 164.629 65.246C163.957 66.982 163.047 68.41 161.899 69.53C160.751 70.622 159.295 71.168 157.531 71.168C156.047 71.168 154.899 70.65 154.087 69.614C153.303 68.578 152.911 67.276 152.911 65.708C152.911 64.308 153.233 63.146 153.877 62.222C154.521 61.27 155.431 60.794 156.607 60.794C157.727 60.794 158.287 61.172 158.287 61.928C158.287 62.068 158.273 62.18 158.245 62.264C158.021 63.608 157.909 64.56 157.909 65.12C157.909 66.072 158.119 66.548 158.539 66.548C158.931 66.548 159.323 66.268 159.715 65.708C160.107 65.12 160.653 63.86 161.353 61.928C162.305 59.324 163.201 56.664 164.041 53.948C164.321 53.08 164.727 52.45 165.259 52.058C165.819 51.638 166.561 51.428 167.485 51.428C168.269 51.428 168.913 51.582 169.417 51.89C169.949 52.198 170.215 52.702 170.215 53.402C170.215 57.462 170.313 60.556 170.509 62.684H170.593C171.069 61.088 171.811 59.254 172.819 57.182C173.827 55.11 174.625 53.752 175.213 53.108C175.745 52.548 176.277 52.128 176.809 51.848C177.369 51.54 177.985 51.386 178.657 51.386C179.665 51.386 180.351 51.61 180.715 52.058C181.079 52.478 181.261 53.276 181.261 54.452C181.261 55.096 181.247 55.74 181.219 56.384C181.191 57 181.163 57.574 181.135 58.106C181.023 60.178 180.967 61.718 180.967 62.726C180.967 64.322 181.079 65.4 181.303 65.96C181.527 66.52 181.947 66.8 182.563 66.8C183.683 66.8 185.097 65.33 186.805 62.39C187.113 61.886 187.491 61.634 187.939 61.634ZM204.461 61.634C204.825 61.634 205.105 61.802 205.301 62.138C205.525 62.474 205.637 62.936 205.637 63.524C205.637 64.644 205.371 65.512 204.839 66.128C203.803 67.388 202.333 68.55 200.429 69.614C198.553 70.678 196.537 71.21 194.381 71.21C191.441 71.21 189.159 70.412 187.535 68.816C185.911 67.22 185.099 65.036 185.099 62.264C185.099 60.332 185.505 58.54 186.317 56.888C187.129 55.208 188.249 53.878 189.677 52.898C191.133 51.918 192.771 51.428 194.591 51.428C196.215 51.428 197.517 51.918 198.497 52.898C199.477 53.85 199.967 55.152 199.967 56.804C199.967 58.736 199.267 60.402 197.867 61.802C196.495 63.174 194.157 64.266 190.853 65.078C191.553 66.366 192.883 67.01 194.843 67.01C196.103 67.01 197.531 66.576 199.127 65.708C200.751 64.812 202.151 63.65 203.327 62.222C203.663 61.83 204.041 61.634 204.461 61.634ZM193.877 55.544C192.841 55.544 191.959 56.146 191.231 57.35C190.531 58.554 190.181 60.01 190.181 61.718V61.802C191.833 61.41 193.135 60.822 194.087 60.038C195.039 59.254 195.515 58.344 195.515 57.308C195.515 56.776 195.361 56.356 195.053 56.048C194.773 55.712 194.381 55.544 193.877 55.544ZM224.393 61.634C224.757 61.634 225.037 61.802 225.233 62.138C225.457 62.474 225.569 62.936 225.569 63.524C225.569 64.644 225.303 65.512 224.771 66.128C223.483 67.612 222.153 68.83 220.781 69.782C219.437 70.734 217.897 71.21 216.161 71.21C214.705 71.21 213.683 70.762 213.095 69.866C212.507 68.97 212.213 67.626 212.213 65.834C212.213 65.078 212.283 64.168 212.423 63.104C209.959 63.104 208.251 63.076 207.299 63.02C207.243 63.804 207.215 64.35 207.215 64.658V65.54C207.187 67.276 207.145 68.494 207.089 69.194C207.033 69.894 206.865 70.412 206.585 70.748C206.305 71.056 205.843 71.21 205.199 71.21C204.135 71.21 203.379 70.65 202.931 69.53C202.511 68.41 202.301 66.618 202.301 64.154C202.301 60.514 202.819 57.056 203.855 53.78C204.107 52.968 204.513 52.38 205.073 52.016C205.633 51.624 206.445 51.428 207.509 51.428C208.069 51.428 208.461 51.498 208.685 51.638C208.909 51.778 209.021 52.044 209.021 52.436C209.021 52.884 208.811 53.892 208.391 55.46C208.167 56.384 207.957 57.504 207.761 58.82H213.137C213.417 57.504 213.823 55.824 214.355 53.78C214.579 52.94 214.915 52.338 215.363 51.974C215.839 51.61 216.539 51.428 217.463 51.428C218.107 51.428 218.555 51.512 218.807 51.68C219.059 51.82 219.185 52.1 219.185 52.52C219.185 53.22 218.835 55.138 218.135 58.274C217.351 61.858 216.959 64.07 216.959 64.91C216.959 65.442 217.071 65.862 217.295 66.17C217.519 66.45 217.813 66.59 218.177 66.59C218.737 66.59 219.395 66.254 220.151 65.582C220.935 64.882 221.971 63.762 223.259 62.222C223.595 61.83 223.973 61.634 224.393 61.634ZM244.327 61.634C244.691 61.634 244.971 61.802 245.167 62.138C245.391 62.474 245.503 62.936 245.503 63.524C245.503 64.644 245.237 65.512 244.705 66.128C243.417 67.612 242.087 68.83 240.715 69.782C239.371 70.734 237.831 71.21 236.095 71.21C234.639 71.21 233.617 70.762 233.029 69.866C232.441 68.97 232.147 67.626 232.147 65.834C232.147 65.078 232.217 64.168 232.357 63.104C229.893 63.104 228.185 63.076 227.233 63.02C227.177 63.804 227.149 64.35 227.149 64.658V65.54C227.121 67.276 227.079 68.494 227.023 69.194C226.967 69.894 226.799 70.412 226.519 70.748C226.239 71.056 225.777 71.21 225.133 71.21C224.069 71.21 223.313 70.65 222.865 69.53C222.445 68.41 222.235 66.618 222.235 64.154C222.235 60.514 222.753 57.056 223.789 53.78C224.041 52.968 224.447 52.38 225.007 52.016C225.567 51.624 226.379 51.428 227.443 51.428C228.003 51.428 228.395 51.498 228.619 51.638C228.843 51.778 228.955 52.044 228.955 52.436C228.955 52.884 228.745 53.892 228.325 55.46C228.101 56.384 227.891 57.504 227.695 58.82H233.071C233.351 57.504 233.757 55.824 234.289 53.78C234.513 52.94 234.849 52.338 235.297 51.974C235.773 51.61 236.473 51.428 237.397 51.428C238.041 51.428 238.489 51.512 238.741 51.68C238.993 51.82 239.119 52.1 239.119 52.52C239.119 53.22 238.769 55.138 238.069 58.274C237.285 61.858 236.893 64.07 236.893 64.91C236.893 65.442 237.005 65.862 237.229 66.17C237.453 66.45 237.747 66.59 238.111 66.59C238.671 66.59 239.329 66.254 240.085 65.582C240.869 64.882 241.905 63.762 243.193 62.222C243.529 61.83 243.907 61.634 244.327 61.634ZM263.504 58.106C263.868 58.106 264.148 58.288 264.344 58.652C264.54 59.016 264.638 59.478 264.638 60.038C264.638 61.382 264.232 62.18 263.42 62.432C261.74 63.02 259.892 63.356 257.876 63.44C257.344 65.792 256.294 67.682 254.726 69.11C253.158 70.51 251.38 71.21 249.392 71.21C247.712 71.21 246.27 70.804 245.066 69.992C243.89 69.18 242.994 68.102 242.378 66.758C241.762 65.414 241.454 63.958 241.454 62.39C241.454 60.262 241.86 58.372 242.672 56.72C243.484 55.04 244.604 53.738 246.032 52.814C247.46 51.862 249.042 51.386 250.778 51.386C252.906 51.386 254.614 52.128 255.902 53.612C257.218 55.068 257.988 56.874 258.212 59.03C259.528 58.946 261.096 58.666 262.916 58.19C263.14 58.134 263.336 58.106 263.504 58.106ZM249.728 66.758C250.624 66.758 251.394 66.394 252.038 65.666C252.71 64.938 253.158 63.888 253.382 62.516C252.514 61.928 251.842 61.158 251.366 60.206C250.918 59.254 250.694 58.246 250.694 57.182C250.694 56.734 250.736 56.286 250.82 55.838H250.61C249.49 55.838 248.552 56.384 247.796 57.476C247.068 58.54 246.704 60.052 246.704 62.012C246.704 63.552 246.998 64.728 247.586 65.54C248.202 66.352 248.916 66.758 249.728 66.758ZM269.056 71.21C266.312 71.21 264.17 70.44 262.63 68.9C261.118 67.332 260.362 65.274 260.362 62.726C260.362 60.458 260.81 58.47 261.706 56.762C262.602 55.054 263.764 53.738 265.192 52.814C266.62 51.89 268.118 51.428 269.686 51.428C271.226 51.428 272.416 51.89 273.256 52.814C274.124 53.71 274.558 54.872 274.558 56.3C274.558 57.476 274.292 58.47 273.76 59.282C273.256 60.094 272.584 60.5 271.744 60.5C271.212 60.5 270.778 60.374 270.442 60.122C270.134 59.87 269.98 59.52 269.98 59.072C269.98 58.876 270.008 58.652 270.064 58.4C270.12 58.148 270.162 57.966 270.19 57.854C270.33 57.434 270.4 57.042 270.4 56.678C270.4 56.314 270.302 56.034 270.106 55.838C269.938 55.642 269.686 55.544 269.35 55.544C268.706 55.544 268.104 55.838 267.544 56.426C266.984 56.986 266.536 57.756 266.2 58.736C265.864 59.716 265.696 60.794 265.696 61.97C265.696 65.218 267.11 66.842 269.938 66.842C271.086 66.842 272.318 66.464 273.634 65.708C274.978 64.924 276.294 63.762 277.582 62.222C277.918 61.83 278.296 61.634 278.716 61.634C279.08 61.634 279.36 61.802 279.556 62.138C279.78 62.474 279.892 62.936 279.892 63.524C279.892 64.588 279.626 65.456 279.094 66.128C277.778 67.752 276.196 69.012 274.348 69.908C272.528 70.776 270.764 71.21 269.056 71.21ZM279.478 71.21C278.414 71.21 277.658 70.65 277.21 69.53C276.79 68.41 276.58 66.618 276.58 64.154C276.58 60.514 277.098 57.056 278.134 53.78C278.386 52.968 278.792 52.38 279.352 52.016C279.94 51.624 280.752 51.428 281.788 51.428C282.348 51.428 282.74 51.498 282.964 51.638C283.188 51.778 283.3 52.044 283.3 52.436C283.3 52.884 283.09 53.892 282.67 55.46C282.39 56.58 282.166 57.56 281.998 58.4C281.83 59.212 281.69 60.234 281.578 61.466C282.334 59.282 283.23 57.434 284.266 55.922C285.33 54.41 286.408 53.29 287.5 52.562C288.62 51.806 289.67 51.428 290.65 51.428C291.63 51.428 292.316 51.652 292.708 52.1C293.128 52.548 293.338 53.234 293.338 54.158C293.338 55.054 293.072 56.678 292.54 59.03C292.316 60.038 292.162 60.794 292.078 61.298C293.478 57.854 295.032 55.348 296.74 53.78C298.448 52.212 300.044 51.428 301.528 51.428C303.348 51.428 304.258 52.338 304.258 54.158C304.258 55.25 303.95 57.224 303.334 60.08C302.802 62.516 302.536 64.126 302.536 64.91C302.536 66.03 302.942 66.59 303.754 66.59C304.314 66.59 304.972 66.254 305.728 65.582C306.512 64.882 307.548 63.762 308.836 62.222C309.172 61.83 309.55 61.634 309.97 61.634C310.334 61.634 310.614 61.802 310.81 62.138C311.034 62.474 311.146 62.936 311.146 63.524C311.146 64.644 310.88 65.512 310.348 66.128C309.144 67.612 307.842 68.83 306.442 69.782C305.07 70.734 303.502 71.21 301.738 71.21C300.31 71.21 299.232 70.804 298.504 69.992C297.776 69.152 297.412 67.948 297.412 66.38C297.412 65.596 297.608 64.196 298 62.18C298.364 60.416 298.546 59.198 298.546 58.526C298.546 58.078 298.392 57.854 298.084 57.854C297.72 57.854 297.202 58.33 296.53 59.282C295.858 60.206 295.186 61.438 294.514 62.978C293.842 64.518 293.296 66.142 292.876 67.85C292.568 69.194 292.204 70.09 291.784 70.538C291.392 70.986 290.748 71.21 289.852 71.21C288.928 71.21 288.228 70.776 287.752 69.908C287.304 69.012 287.08 67.934 287.08 66.674C287.08 65.61 287.22 64.07 287.5 62.054C287.724 60.262 287.836 59.086 287.836 58.526C287.836 58.078 287.682 57.854 287.374 57.854C286.954 57.854 286.422 58.358 285.778 59.366C285.134 60.374 284.504 61.662 283.888 63.23C283.3 64.798 282.824 66.338 282.46 67.85C282.152 69.166 281.788 70.062 281.368 70.538C280.976 70.986 280.346 71.21 279.478 71.21ZM312.034 71.21C310.774 71.21 309.738 70.636 308.926 69.488C308.142 68.312 307.75 66.856 307.75 65.12C307.75 63.02 307.89 61.102 308.17 59.366C308.45 57.602 308.912 55.74 309.556 53.78C309.836 52.94 310.228 52.338 310.732 51.974C311.236 51.61 312.034 51.428 313.126 51.428C313.742 51.428 314.162 51.526 314.386 51.722C314.638 51.918 314.764 52.212 314.764 52.604C314.764 52.828 314.61 53.584 314.302 54.872C314.022 55.908 313.798 56.846 313.63 57.686C313.07 60.626 312.79 62.586 312.79 63.566C312.79 64.154 312.86 64.574 313 64.826C313.14 65.05 313.364 65.162 313.672 65.162C314.092 65.162 314.61 64.742 315.226 63.902C315.87 63.062 316.542 61.788 317.242 60.08C317.97 58.372 318.67 56.272 319.342 53.78C319.566 52.94 319.902 52.338 320.35 51.974C320.826 51.61 321.526 51.428 322.45 51.428C323.094 51.428 323.542 51.512 323.794 51.68C324.046 51.82 324.172 52.1 324.172 52.52C324.172 53.22 323.822 55.138 323.122 58.274C322.338 61.858 321.946 64.07 321.946 64.91C321.946 65.442 322.058 65.862 322.282 66.17C322.506 66.45 322.8 66.59 323.164 66.59C323.724 66.59 324.382 66.254 325.138 65.582C325.922 64.882 326.958 63.762 328.246 62.222C328.582 61.83 328.96 61.634 329.38 61.634C329.744 61.634 330.024 61.802 330.22 62.138C330.444 62.474 330.556 62.936 330.556 63.524C330.556 64.644 330.29 65.512 329.758 66.128C328.554 67.612 327.252 68.83 325.852 69.782C324.48 70.734 322.912 71.21 321.148 71.21C319.804 71.21 318.81 70.692 318.166 69.656C317.55 68.62 317.242 67.164 317.242 65.288C316.766 67.192 316.052 68.662 315.1 69.698C314.148 70.706 313.126 71.21 312.034 71.21Z" fill="#2A9C9E"/></g></symbol><symbol id="logo" viewBox="0 0 77 88"><g fill="none"><g clip-path="url(#clip0_202_912)"><path d="M76.6485 40.6367C73.2791 20.1854 48.2977 7.13077 26.081 13.5086C8.25043 18.6353 -2.34675 35.1668 0.428968 51.1557C3.25415 67.4159 19.9304 79.2803 38.4315 79.4353C49.4904 79.3522 59.8678 75.4879 67.2275 68.1633C74.4664 60.955 78.2205 50.1702 76.6485 40.6367Z" fill="#FF9EA8"/><path d="M55.0249 11.3771L55.1184 11.6429C55.5651 12.8162 55.769 14.069 55.7175 15.3246C55.7167 15.3429 55.7197 15.3613 55.7263 15.3784C55.7329 15.3956 55.743 15.4112 55.756 15.4242C55.7783 15.4454 55.8077 15.4573 55.8384 15.4574C56.0583 15.4574 56.3001 15.4242 56.5584 15.4242C57.0476 15.4242 57.5093 15.463 57.8501 15.4962C58.1909 15.5294 58.3998 15.5571 58.6471 15.6014C58.6656 15.6016 58.6838 15.5972 58.7002 15.5885C58.7165 15.5798 58.7304 15.5671 58.7405 15.5515C58.7511 15.533 58.7567 15.512 58.7567 15.4906C58.7567 15.4693 58.7511 15.4483 58.7405 15.4297C58.3858 14.5087 58.144 13.5475 58.0205 12.5675C57.9912 12.3645 57.9637 12.1541 57.938 11.9363C57.9114 11.071 57.6613 10.2276 57.2125 9.48926C56.7178 8.81383 56.2506 8.48718 55.7889 8.48718C55.6641 8.48835 55.5407 8.5147 55.4262 8.56469C55.1353 8.67565 54.8936 8.8882 54.7453 9.16361C54.597 9.43901 54.5519 9.75892 54.6182 10.065C54.7305 10.5094 54.8663 10.9474 55.0249 11.3771Z" fill="#FFCCAD"/><path d="M21.0296 68.1357C21.6089 68.7066 22.0507 69.4035 22.3213 70.173C22.5161 70.74 22.638 71.3299 22.684 71.9281C22.6848 71.9545 22.6945 71.9799 22.7115 72C23.0412 72.3926 23.4095 72.7506 23.8108 73.0685C23.8337 73.0781 23.8594 73.0781 23.8823 73.0685C23.9039 73.0742 23.9266 73.0742 23.9482 73.0685C23.9701 73.0537 23.987 73.0325 23.9968 73.0078C24.0066 72.9832 24.0088 72.9561 24.0032 72.9301C23.8218 72.2547 23.6459 71.5793 23.4865 70.9038C23.3711 70.4277 23.2502 69.9516 23.1347 69.4699C22.9479 68.7336 22.7665 67.9973 22.5851 67.2554C22.5746 67.2232 22.5532 67.1958 22.5246 67.1779C22.5048 67.173 22.484 67.173 22.4642 67.1779H22.4257C21.9196 67.3561 21.4447 67.614 21.0186 67.9419C21.0045 67.9531 20.9932 67.9674 20.9856 67.9837C20.978 68.0001 20.9742 68.018 20.9746 68.036C20.975 68.0559 20.9802 68.0754 20.9898 68.0927C20.9994 68.1101 21.0131 68.1248 21.0296 68.1357Z" fill="#FFCCAD"/><path d="M20.9856 81.7273C21.0022 81.728 21.0187 81.7249 21.034 81.7181C21.0492 81.7114 21.0627 81.7013 21.0735 81.6886C21.1761 81.5778 21.2844 81.4725 21.3978 81.373C22.556 80.4194 23.8979 79.7182 25.3388 79.3135L25.9434 79.1253C25.9596 79.1205 25.9744 79.112 25.9868 79.1004C25.9992 79.0889 26.0088 79.0747 26.0149 79.0588C26.0218 79.0432 26.0254 79.0262 26.0254 79.009C26.0254 78.9918 26.0218 78.9748 26.0149 78.9592C25.3872 77.4651 24.8494 75.9343 24.4044 74.3751C24.3945 74.3487 24.3773 74.3257 24.3549 74.3087L24.267 74.2533C23.759 73.9473 23.2837 73.5893 22.8489 73.1848C22.8244 73.1637 22.7932 73.1519 22.761 73.1516H22.739C22.7166 73.1573 22.6965 73.1701 22.6817 73.188C22.6669 73.2058 22.6581 73.228 22.6565 73.2512C22.5348 74.2176 22.1001 75.1166 21.4198 75.809L21.4583 75.6651C21.865 74.0651 22.2443 72.5481 21.8925 70.8872C21.5737 69.3702 20.2985 67.654 18.5946 67.4658C18.5679 67.4665 18.5421 67.4753 18.5205 67.4911C18.4989 67.5069 18.4826 67.529 18.4737 67.5543C18.4014 67.8432 18.2826 68.1181 18.1219 68.3682C18.1219 68.1467 18.1219 67.9308 18.089 67.7149C18.023 66.4747 17.9625 65.3121 17.0171 64.2658C16.7736 63.9746 16.4744 63.7357 16.1373 63.5636C15.8001 63.3914 15.432 63.2894 15.0549 63.2637C14.7977 63.2649 14.5439 63.3236 14.312 63.4356C14.0801 63.5477 13.8757 63.7102 13.7138 63.9114C12.7574 65.0187 13.4444 65.8547 14.104 66.6796C14.6811 67.3993 15.2033 68.0803 14.8735 68.9495C14.8424 69.0713 14.7709 69.1788 14.671 69.2543C14.5711 69.3297 14.4487 69.3687 14.3239 69.3647C13.7748 69.2528 13.2625 69.0033 12.8343 68.6395C12.7022 68.5395 12.5646 68.447 12.4221 68.3626C12.2365 68.2542 12.0265 68.1951 11.812 68.191C11.5228 68.2118 11.2468 68.3209 11.0209 68.504C10.7949 68.687 10.6299 68.9352 10.5478 69.2152C10.4237 69.5048 10.3908 69.8257 10.4538 70.1347C10.5167 70.4436 10.6723 70.7256 10.8996 70.9426C11.5037 71.4191 12.2385 71.6973 13.0047 71.7398C12.6943 71.9608 12.324 72.0807 11.9439 72.0831C11.5938 72.0684 11.2519 71.9723 10.9448 71.8023C10.6378 71.6322 10.374 71.393 10.174 71.1031C10.163 71.0871 10.1482 71.0742 10.1309 71.0655C10.1136 71.0568 10.0944 71.0526 10.0751 71.0533C10.0545 71.0553 10.0346 71.0625 10.0174 71.0741C10.0001 71.0857 9.98598 71.1013 9.97617 71.1197C9.89164 71.2998 9.85243 71.498 9.86202 71.6969C9.87161 71.8958 9.92969 72.0893 10.0311 72.2602C10.43 72.8907 11.0603 73.3366 11.7845 73.5004C11.5578 73.6179 11.3083 73.684 11.0535 73.6941C10.8996 73.6929 10.7471 73.6648 10.6028 73.6111C10.4001 73.5317 10.2138 73.4154 10.0531 73.2678C10.031 73.2506 10.0041 73.2409 9.97617 73.2401H9.93769C9.91704 73.2473 9.89861 73.2598 9.88416 73.2763C9.86971 73.2928 9.85974 73.3127 9.85524 73.3343C9.80905 73.5244 9.81371 73.7234 9.86875 73.9111C9.92378 74.0988 10.0272 74.2685 10.1685 74.4028C10.5427 74.7617 11.0277 74.9805 11.5427 75.0228C11.3237 75.1677 11.0681 75.2464 10.8061 75.2498C10.6167 75.2523 10.429 75.2126 10.2565 75.1336H10.207H10.1411C10.1245 75.1444 10.1109 75.1591 10.1013 75.1765C10.0917 75.1939 10.0865 75.2134 10.0861 75.2332C10.0476 76.3405 10.7567 76.5453 11.5042 76.7723C11.8636 76.8668 12.2091 77.0082 12.532 77.1931C12.9476 77.481 13.3342 77.8092 13.6863 78.173C13.9226 78.4 14.1645 78.6381 14.4283 78.854C16.2421 80.3433 18.754 81.1294 20.9746 81.7052L20.9856 81.7273Z" fill="#FFCCAD"/><path d="M37.1123 78.8595C36.4676 78.5125 35.7946 78.2217 35.1006 77.9903C34.7323 77.8574 34.3696 77.719 34.0013 77.5695C30.7364 76.191 30.0274 71.7841 29.5052 68.5619C28.8731 64.6256 28.4554 60.1522 30.0933 56.6422C29.5705 60.357 29.5705 64.1274 30.0933 67.8422C30.0947 67.8562 30.0987 67.8698 30.1053 67.8821C30.1119 67.8945 30.121 67.9054 30.1318 67.9142C31.8412 69.4754 34.7323 69.6581 36.7605 69.6581C37.2607 69.6581 37.7389 69.6581 38.1841 69.6581C41.1742 69.5751 44.3017 69.3093 46.929 67.9695C49.5563 66.6297 50.9469 64.5702 50.9469 62.0125C50.9307 60.2839 50.5758 58.5756 49.9026 56.9855C49.4124 55.9004 49.0881 54.7468 48.9407 53.564C48.7978 51.4048 49.6443 49.1017 51.4636 46.71C52.1584 45.8348 52.9172 45.0132 53.7336 44.2519C54.3602 43.6374 55.0088 43.0062 55.5914 42.3197C59.061 38.2167 60.8129 32.9168 60.4778 27.5377C60.4719 27.5005 60.4523 27.4669 60.4228 27.4436C60.4011 27.4386 60.3786 27.4386 60.3569 27.4436H60.3129C59.974 27.582 59.6123 27.6552 59.2466 27.6595C60.1211 27.2398 60.8916 26.6289 61.502 25.8713C62.1125 25.1138 62.5474 24.2286 62.7753 23.2803C62.8852 22.8761 62.9677 22.472 63.0446 22.0789C63.27 20.9329 63.4899 19.8644 64.3968 18.9121C64.743 18.5578 65.1278 18.2201 65.4961 17.899C65.8643 17.5778 66.0952 17.3785 66.414 17.0685C66.9636 16.5481 67.6837 15.8394 67.6067 15.009C67.5518 14.3945 67.2055 14.0291 66.6833 14.0291C66.4835 14.0382 66.2875 14.087 66.1064 14.1724C65.9254 14.2579 65.7628 14.3785 65.628 14.5273C65.5181 14.6436 65.3916 14.7931 65.2487 14.9647C64.7485 15.5682 64.067 16.3931 63.3909 16.3931C63.2813 16.3929 63.1728 16.3703 63.0721 16.3266C62.3686 16.0332 62.5665 14.9093 62.6984 14.1675C62.6984 14.0623 62.7368 13.9626 62.7533 13.8796C62.7863 13.6526 62.8303 13.4145 62.8797 13.1709C63.0666 12.1799 63.2755 11.0616 62.9512 10.1702C62.7698 9.6775 62.561 9.4339 62.3081 9.4339C61.4946 9.4339 60.8845 12.263 60.879 12.2906C60.8186 12.6062 60.7581 12.9273 60.7032 13.2484C60.586 14.0759 60.389 14.8899 60.115 15.6789L60.225 15.7232H60.0711C60.0632 15.7405 60.0591 15.7594 60.0591 15.7785C60.0591 15.7976 60.0632 15.8165 60.0711 15.8339C60.0779 15.8524 60.0889 15.869 60.1032 15.8824C60.1175 15.8959 60.1347 15.9058 60.1535 15.9114C61.0453 16.1554 61.8703 16.6003 62.5665 17.2124C60.8485 16.3918 58.9714 15.9645 57.07 15.9612C55.9877 15.9438 54.9119 16.1316 53.8985 16.5149C54.0522 16.1671 54.334 15.8932 54.6845 15.7509C54.7006 15.7438 54.715 15.7332 54.7264 15.7198C54.7378 15.7064 54.7461 15.6905 54.7505 15.6733C54.7582 15.6579 54.7622 15.6408 54.7622 15.6235C54.7622 15.6062 54.7582 15.5891 54.7505 15.5737C54.6021 15.3356 54.4317 15.0201 54.2558 14.699C53.5413 13.3924 52.5629 11.6041 51.1338 11.6041C50.9478 11.6028 50.7626 11.629 50.5842 11.6817C50.4534 11.7127 50.332 11.7753 50.2305 11.864C50.129 11.9527 50.0505 12.0649 50.0015 12.191C49.7652 12.8609 50.3588 13.9626 50.8975 14.7654C51.1173 15.092 51.3701 15.4187 51.645 15.7675C52.5794 16.9744 53.6457 18.3419 53.2444 19.8422C53.1214 20.1788 52.8954 20.4674 52.5991 20.6664C52.3027 20.8654 51.9513 20.9645 51.5955 20.9495H51.4416C50.99 20.8797 50.5533 20.7337 50.1499 20.5176L49.8751 20.3903C49.6419 20.2722 49.3992 20.174 49.1496 20.0969C48.95 20.0469 48.7452 20.0209 48.5395 20.0194C48.3903 20.0023 48.2393 20.0221 48.0994 20.0771C47.9596 20.1321 47.8352 20.2206 47.737 20.3349C47.6624 20.4676 47.6209 20.6165 47.6162 20.7689C47.6114 20.9213 47.6434 21.0725 47.7095 21.2097C48.0723 22.2505 49.2595 22.6768 50.4083 23.092C51.018 23.2741 51.6005 23.5385 52.1397 23.8782L52.6893 24.2657C53.871 25.1515 54.9923 25.9875 56.4984 26.2422C56.2563 26.2945 56.0094 26.3205 55.7618 26.3197C55.5195 26.3195 55.2779 26.2916 55.0418 26.2367H55.0143C54.9927 26.231 54.97 26.231 54.9484 26.2367C54.9343 26.2449 54.9221 26.2561 54.9126 26.2695C54.9032 26.2829 54.8966 26.2981 54.8934 26.3142C54.6697 27.4733 54.277 28.5926 53.7281 29.636C53.6996 29.6869 53.6578 29.729 53.6072 29.7578C53.5831 29.7744 53.5651 29.7987 53.5561 29.8268C53.5472 29.8548 53.5478 29.8851 53.5577 29.9128C53.943 30.7595 54.2253 31.6499 54.3987 32.5647C54.8209 35.0628 54.6015 37.6281 53.7611 40.0166C52.343 43.8367 49.4244 46.7599 45.3295 48.4595C41.7439 49.9313 37.9117 50.698 34.0398 50.7183C30.7669 50.7829 27.5247 50.0718 24.5749 48.6422H24.5199C24.5007 48.6424 24.4819 48.647 24.4648 48.6556C24.4476 48.6643 24.4326 48.6767 24.421 48.692C23.1678 50.2754 22.4532 52.5066 22.1894 55.7121C21.9756 58.4302 22.1197 61.1649 22.6181 63.845C23.4729 68.1308 24.5834 72.3609 25.9435 76.5121C26.1743 77.2651 26.4052 78.0235 26.6305 78.782C26.6393 78.8059 26.655 78.8266 26.6756 78.8414C26.6962 78.8562 26.7207 78.8644 26.746 78.8651H26.779C27.4576 78.6619 28.1599 78.5502 28.8676 78.5329C29.1256 78.5316 29.3831 78.5538 29.6371 78.5993C29.0105 78.7986 28.3674 78.9702 27.7408 79.1529C26.3017 79.478 24.9066 79.9762 23.5855 80.6367C22.6375 81.0704 21.8243 81.7555 21.233 82.6187C21.0911 82.8371 20.9996 83.0847 20.9654 83.3434C20.9311 83.6021 20.955 83.8653 21.0351 84.1135C21.1111 84.2893 21.2266 84.4448 21.3726 84.5678C21.5185 84.6908 21.6909 84.7779 21.8761 84.8221L21.9146 84.7059V84.8332H21.9531C21.9728 84.8389 21.9938 84.8389 22.0135 84.8332C22.0285 84.8247 22.0413 84.8127 22.0508 84.7983C22.0604 84.7839 22.0664 84.7674 22.0685 84.7502C22.1988 84.0217 22.5234 83.3427 23.0075 82.7858C23.4917 82.229 24.117 81.8152 24.8167 81.5889C24.0788 82.3364 23.4563 83.1911 22.9699 84.1246C22.7995 84.4955 22.4203 85.3592 22.9699 85.8353C23.219 86.0668 23.5435 86.1987 23.8823 86.2062C24.2714 86.1775 24.6482 86.0561 24.9816 85.8519C25.005 85.8395 25.024 85.82 25.0358 85.7962C25.0477 85.7723 25.0518 85.7453 25.0476 85.719C24.7288 84.2242 25.4928 81.9765 26.768 81.5225C26.658 81.7882 26.5371 82.0429 26.4162 82.2976C26.106 82.8773 25.8836 83.5006 25.7566 84.1467C25.6522 84.8277 25.4983 85.8574 26.1304 86.4055C26.3594 86.6151 26.6565 86.7332 26.9658 86.7377C27.9057 86.7377 28.7247 85.6028 29.049 84.8388C29.0545 84.8207 29.0545 84.8014 29.049 84.7834C28.9281 83.3163 29.2249 82.0484 29.857 81.3121C29.5162 84.2962 29.6756 86.1952 30.3407 86.9426C30.4347 87.056 30.5524 87.147 30.6854 87.2093C30.8185 87.2715 30.9635 87.3033 31.1102 87.3024C31.3089 87.2978 31.5049 87.2545 31.6873 87.1751C32.5118 86.8374 32.4128 85.8131 32.3304 84.9882C32.3056 84.7584 32.2928 84.5274 32.2919 84.2962C32.2681 83.6021 32.4114 82.9126 32.7097 82.2865C32.8499 81.9964 33.0677 81.7515 33.3386 81.5793C33.6096 81.4072 33.9228 81.3146 34.2432 81.3121C34.7482 81.3439 35.2461 81.4483 35.7217 81.6221C36.1081 81.7497 36.503 81.8496 36.9035 81.9211C37.0504 81.9485 37.1993 81.9633 37.3487 81.9654C38.1182 81.9654 38.3435 81.5446 38.4095 81.29C38.5854 80.4817 37.8543 79.2803 37.1123 78.8595Z" fill="#FFCCAD"/><path d="M51.969 68.8166C52.0624 67.5543 52.1943 65.8325 51.3479 64.7419C51.3374 64.7266 51.3234 64.7142 51.3072 64.7055C51.2909 64.6969 51.2728 64.6922 51.2544 64.692C51.2325 64.6946 51.2117 64.7032 51.1942 64.7169C51.1768 64.7305 51.1634 64.7487 51.1555 64.7695C51.0606 64.9992 50.9485 65.2213 50.8202 65.4339C49.4901 67.6484 47.1541 68.7557 45.4337 69.3093C42.9841 70.0365 40.4407 70.3929 37.887 70.3668C37.3374 70.3668 36.7877 70.3668 36.2381 70.3225C34.3253 70.2228 32.1487 70.018 30.5273 68.9162C30.5055 68.9114 30.483 68.9114 30.4613 68.9162C30.4378 68.9106 30.4134 68.9106 30.3899 68.9162C30.3709 68.9296 30.3562 68.9482 30.3474 68.9698C30.3386 68.9914 30.3362 69.0151 30.3404 69.038C30.5218 70.0678 30.7031 70.9149 30.89 71.7121L30.945 71.9391C31.1744 73.0707 31.5768 74.1595 32.1377 75.1668C32.9292 76.4235 33.99 76.8886 35.4026 77.4145C37.123 78.0512 39.0963 79.0145 39.0743 80.8249C39.074 80.8545 39.0844 80.8832 39.1037 80.9056C39.1229 80.9281 39.1496 80.9427 39.1787 80.9467C39.6775 81.0198 40.1807 81.0568 40.6847 81.0574C42.7354 81.0602 44.7452 80.479 46.4821 79.3809C48.219 78.2828 49.6123 76.7125 50.5014 74.8512C51.3587 72.949 51.8563 70.9025 51.969 68.8166Z" fill="white"/><path d="M53.6068 75.6374C52.9808 73.2082 53.3117 70.6292 54.5302 68.4401C55.4316 66.9232 57.0861 65.3066 59.0263 65.3066C59.1772 65.3066 59.3278 65.3177 59.477 65.3398C57.3829 66.209 55.701 67.1114 54.7281 69.2152C53.8982 71.0521 53.6673 73.1065 54.0685 75.0837C54.0734 75.1045 54.0835 75.1236 54.098 75.1391C54.1125 75.1547 54.1307 75.1661 54.151 75.1723H54.1894C54.2035 75.1732 54.2175 75.1711 54.2307 75.1664C54.2439 75.1616 54.2561 75.1542 54.2664 75.1446C54.6566 74.8235 55.0634 74.5246 55.4921 74.2035C56.0418 73.7827 56.6464 73.3509 57.196 72.8526C57.2151 72.8348 57.2284 72.8116 57.2345 72.7862C57.3379 72.2152 57.5057 71.6579 57.7347 71.1253C58.3668 69.7467 59.7574 68.1246 61.5822 68.1024C61.6143 68.1024 61.645 68.0896 61.6677 68.0667C61.6904 68.0439 61.7031 68.0129 61.7031 67.9806C61.6949 67.2656 61.8976 66.5642 62.2857 65.9654C62.5029 65.6317 62.7475 65.3169 63.0168 65.0242C63.03 65.0117 63.04 64.996 63.0457 64.9786C63.0515 64.9612 63.0529 64.9426 63.0497 64.9246C63.0483 64.9071 63.0432 64.8901 63.0346 64.8748C63.0261 64.8595 63.0144 64.8463 63.0003 64.836C61.7122 63.9713 60.1888 63.5321 58.6416 63.5792C56.4974 63.6568 54.3884 64.1512 52.4306 65.0353C52.4157 65.0414 52.4022 65.0503 52.3908 65.0617C52.3794 65.0731 52.3703 65.0867 52.3642 65.1016C52.358 65.1166 52.3549 65.1326 52.355 65.1488C52.3551 65.165 52.3583 65.181 52.3646 65.1958C52.7147 66.2807 52.8254 67.4295 52.6889 68.5619C52.6119 70.862 52.0714 73.1223 51.1004 75.2055C50.5161 76.3663 49.7496 77.4244 48.8304 78.3391C48.8138 78.354 48.8019 78.3735 48.7961 78.3951C48.7902 78.4167 48.7907 78.4396 48.7974 78.4609C48.8028 78.4826 48.8146 78.5022 48.8313 78.517C48.848 78.5319 48.8688 78.5412 48.8909 78.5439C49.2191 78.6047 49.552 78.6362 49.8857 78.6381C50.6353 78.6402 51.375 78.4657 52.0458 78.1287C52.0603 78.1216 52.0732 78.1116 52.0836 78.0992C52.094 78.0868 52.1018 78.0723 52.1063 78.0567C52.4001 77.1834 52.8999 76.395 53.5629 75.7592C53.582 75.7461 53.5965 75.7273 53.6044 75.7054C53.6123 75.6836 53.6131 75.6597 53.6068 75.6374Z" fill="#FFCCAD"/><path d="M69.9316 74.9398H69.8877C69.8665 74.9312 69.8429 74.9312 69.8217 74.9398C69.7137 75.0119 69.595 75.0661 69.4699 75.1004C69.3879 75.1112 69.3047 75.1112 69.2226 75.1004C68.9542 75.0856 68.6953 74.9955 68.4751 74.8402C68.7903 74.8194 69.094 74.7133 69.3543 74.533C69.6146 74.3527 69.8216 74.105 69.9536 73.8159C70.0348 73.5282 70.0572 73.2268 70.0196 72.9301C70.016 72.9076 70.0064 72.8865 69.9919 72.8689C69.9774 72.8514 69.9585 72.8381 69.9371 72.8305H69.8987C69.8656 72.8318 69.8342 72.8456 69.8107 72.8692L69.7723 72.919L69.7393 72.9578C69.631 73.0706 69.5011 73.1601 69.3575 73.221C69.2139 73.2819 69.0596 73.3129 68.9038 73.3121C68.4641 73.2731 68.0363 73.1471 67.6451 72.9412L67.3923 72.8471C67.5863 72.8042 67.7827 72.7727 67.9804 72.753C68.7444 72.6588 69.7887 72.5315 69.6953 71.4076C69.6513 70.8097 69.1786 69.7467 68.4146 69.7467C68.3021 69.7481 68.1906 69.7687 68.0848 69.8076C67.785 69.9358 67.4947 70.0856 67.2164 70.2561C66.8762 70.4677 66.5053 70.6246 66.1171 70.7211C66.0977 70.7267 66.0797 70.7366 66.0645 70.75C66.0493 70.7634 66.0373 70.78 66.0292 70.7986C66.0212 70.816 66.0172 70.8349 66.0172 70.854C66.0172 70.8731 66.0212 70.892 66.0292 70.9094C66.4427 71.5553 66.7786 72.2485 67.0295 72.9744C67.6285 74.4191 67.7611 76.017 67.4088 77.5419C67.2172 76.034 66.8728 74.5499 66.3809 73.1128C66.1056 72.4599 65.7784 71.8304 65.4026 71.2305C65.0168 70.6229 64.6857 69.9818 64.4132 69.3149C64.6562 69.4444 64.8831 69.6023 65.0893 69.7855C65.1114 69.8027 65.1383 69.8124 65.1662 69.8132H65.2047C65.224 69.8053 65.2414 69.7934 65.2556 69.7781C65.2699 69.7628 65.2806 69.7445 65.2871 69.7246C65.4812 69.1445 65.8089 68.619 66.2435 68.191C66.9086 67.4049 67.6011 66.591 66.9361 65.5723C66.7756 65.2843 66.5441 65.0428 66.2639 64.8711C65.9837 64.6994 65.6644 64.6035 65.3366 64.5924C64.82 64.6483 64.325 64.8316 63.8955 65.1261C63.466 65.4207 63.1152 65.8173 62.8742 66.281C62.4541 67.0599 62.2172 67.9254 62.1816 68.8111C62.1816 69.0436 62.1322 69.2761 62.0992 69.5197C61.949 69.2596 61.8396 68.9776 61.7749 68.6838C61.7679 68.6563 61.7524 68.6319 61.7307 68.614C61.7089 68.596 61.682 68.5856 61.654 68.5841C59.4169 68.7114 58.2571 70.9094 57.9384 72.753L57.8779 73.1239C57.7075 74.2312 57.5096 75.4602 56.5423 75.9862C56.7075 75.4423 56.8343 74.8873 56.9215 74.3253C56.9245 74.3018 56.9209 74.278 56.9112 74.2565C56.9015 74.235 56.886 74.2166 56.8665 74.2035C56.8451 74.1963 56.822 74.1963 56.8006 74.2035C56.7775 74.195 56.7522 74.195 56.7291 74.2035C56.3368 74.4926 55.9295 74.7606 55.5089 75.0062C54.8733 75.3401 54.2944 75.7737 53.794 76.2907C52.6947 77.6139 52.2715 79.4464 52.7387 80.753C52.9231 81.2447 53.2369 81.6767 53.6465 82.0024C54.0561 82.3282 54.546 82.5355 55.0637 82.6021C55.5799 82.7025 56.1045 82.7525 56.6302 82.7516C57.7089 82.7361 58.7802 82.5684 59.8127 82.2533C60.1314 82.1592 60.4502 82.0761 60.769 81.9876C61.774 81.7559 62.7536 81.4239 63.6932 80.9965C64.2815 80.6895 64.8345 80.3182 65.3421 79.8893C65.7706 79.5398 66.2285 79.2285 66.7107 78.9592C67.0623 78.7893 67.4308 78.6575 67.81 78.5661C68.651 78.3336 69.5249 78.09 69.6074 77.0159C69.6109 76.996 69.6086 76.9755 69.6008 76.9568C69.593 76.9382 69.58 76.9222 69.5634 76.9107C69.5531 76.9012 69.5409 76.8938 69.5277 76.889C69.5145 76.8843 69.5005 76.8822 69.4864 76.8831H69.459C69.3166 76.9285 69.1685 76.9527 69.0192 76.955C68.7257 76.9523 68.4408 76.8553 68.2058 76.6782C68.7351 76.6765 69.2454 76.4795 69.6403 76.1246C69.7872 75.9851 69.8965 75.8103 69.958 75.6167C70.0196 75.423 70.0313 75.2168 69.9921 75.0173C69.9883 75.0007 69.9809 74.9852 69.9704 74.9718C69.96 74.9584 69.9467 74.9475 69.9316 74.9398Z" fill="#FFCCAD"/><path d="M11.7459 37.5917C11.7658 37.5894 11.7849 37.5828 11.802 37.5723C11.8191 37.5618 11.8337 37.5476 11.8448 37.5308C11.9327 37.3758 12.0262 37.2208 12.1306 37.0713C12.4057 36.6954 12.7536 36.3794 13.1531 36.1425C13.5527 35.9056 13.9958 35.7526 14.4556 35.6928C14.8034 35.5991 15.162 35.5526 15.5219 35.5544C15.5385 35.555 15.5551 35.5519 15.5703 35.5452C15.5856 35.5384 15.5991 35.5283 15.6099 35.5156C15.6226 35.5051 15.6324 35.4913 15.6382 35.4758C15.644 35.4602 15.6456 35.4434 15.6429 35.427C15.5219 33.4284 15.9616 30.8485 17.5446 29.4201C17.4622 29.6526 17.3742 29.8851 17.2863 30.1177C16.992 30.8136 16.7727 31.5393 16.6322 32.2824C16.4666 33.3817 16.4353 34.4972 16.5388 35.6042C16.5388 35.654 16.6157 35.7038 16.6652 35.7204L16.7916 35.7537C17.275 35.9391 17.7129 36.2275 18.0753 36.5992C18.4377 36.9709 18.716 37.4171 18.8913 37.9073L18.7429 37.8021C18.0467 37.2441 17.2772 36.7858 16.4563 36.4402C16.1059 36.3796 15.7511 36.3481 15.3955 36.3461C14.7616 36.2957 14.1272 36.4382 13.5745 36.7551C13.0219 37.0719 12.5763 37.5485 12.2955 38.1232C12.0314 38.6703 11.902 39.2733 11.9182 39.8814C11.9345 40.4895 12.096 41.0847 12.389 41.6166C12.7729 42.2712 13.3148 42.8174 13.9644 43.2045C14.614 43.5917 15.3502 43.8072 16.1046 43.8312C16.5942 43.8367 17.0785 43.7293 17.5205 43.5172C17.9626 43.3051 18.3506 42.994 18.6549 42.6076C18.6805 42.5729 18.7136 42.5443 18.7517 42.5242C18.7897 42.5041 18.8318 42.4929 18.8748 42.4914C18.9355 42.4942 18.9943 42.5133 19.0452 42.5467C19.0827 42.5574 19.1176 42.5756 19.1479 42.6004C19.1781 42.6252 19.203 42.6559 19.2211 42.6907C20.472 44.8556 22.2949 46.6284 24.4867 47.8118C24.5391 47.83 24.5877 47.8582 24.6296 47.8948C27.5713 49.3853 30.8297 50.1303 34.122 50.0651C37.6922 50.0562 41.2278 49.359 44.5378 48.0111C49.3472 46.0125 52.4802 42.6741 53.3321 38.5993C53.8103 36.3848 54.1401 33.1737 53.0078 30.3834C52.6301 29.4914 52.2006 28.6226 51.7217 27.7813C50.9428 26.5035 50.3539 25.1176 49.9738 23.6678V23.6125C49.9704 23.5878 49.9604 23.5644 49.945 23.5449C49.9295 23.5254 49.909 23.5105 49.8858 23.5018C48.7316 23.1253 47.5388 22.7267 47.1376 21.6471C47.0278 21.3784 46.9844 21.0868 47.0112 20.7975C47.038 20.5082 47.1342 20.2298 47.2915 19.9862C47.4538 19.7693 47.6665 19.5958 47.9109 19.481C48.1552 19.3661 48.4238 19.3134 48.6931 19.3274C48.9207 19.3333 49.1456 19.3783 49.3582 19.4602H49.3967C49.4273 19.4601 49.4568 19.4482 49.4791 19.427C49.4942 19.4133 49.5057 19.396 49.5124 19.3766C49.5192 19.3573 49.5209 19.3365 49.5176 19.3163C48.6491 14.8208 46.1208 11.3384 42.7624 10.0042H42.713C42.693 10.0035 42.6733 10.0083 42.6559 10.0181C42.6384 10.0278 42.624 10.0421 42.614 10.0595L42.4766 10.2588C41.9386 11.0893 41.266 11.823 40.4869 12.4291C38.2974 14.0458 35.6494 14.9096 32.9347 14.8928C31.5182 14.9078 30.1124 14.6445 28.7959 14.1177L28.664 14.0623C29.8482 14.2241 31.0416 14.3092 32.2367 14.317C35.5346 14.317 38.1179 13.481 40.1351 11.7537C41.2186 10.8499 42.0896 9.71542 42.6855 8.43186V8.38203C42.7569 8.22148 42.8229 8.04985 42.8888 7.87823C42.9548 7.7066 43.0098 7.53497 43.0647 7.32459C43.1197 7.11421 43.1692 6.94259 43.2131 6.72667C43.2571 6.51075 43.2681 6.42217 43.2901 6.26715C43.3121 6.11214 43.3341 5.9239 43.3505 5.75227C43.3505 5.75227 43.3505 5.58619 43.3505 5.54743C43.3505 5.50868 43.3505 5.42563 43.3505 5.36473V5.32598C43.3736 4.10446 43.1762 2.88888 42.7679 1.73843C42.7596 1.71686 42.7454 1.69811 42.7269 1.68438C42.7084 1.67065 42.6864 1.66252 42.6635 1.66093C42.6422 1.66038 42.6212 1.66578 42.6027 1.67653C42.5843 1.68728 42.5692 1.70296 42.5591 1.72183C41.2234 3.98065 38.1949 4.44016 35.705 4.58964L33.1821 4.71698C28.587 4.93843 23.8381 5.16542 19.397 6.93151C16.7971 7.89605 14.4529 9.45118 12.5464 11.4761C10.6399 13.5011 9.22242 15.9414 8.40402 18.6076C6.05703 25.672 7.13433 32.2326 11.5205 37.5807C11.5323 37.5996 11.5484 37.6154 11.5675 37.6267C11.5866 37.6379 11.6082 37.6444 11.6303 37.6455C11.6524 37.6466 11.6745 37.6423 11.6946 37.6329C11.7148 37.6235 11.7323 37.6094 11.7459 37.5917Z" fill="#FFCCAD"/><path d="M25.8441 19.1668C28.4715 18.8291 31.6649 14.8208 31.3406 14.771C30.4921 14.6558 29.6613 14.4345 28.8672 14.1121L28.7353 14.0568C29.9195 14.2186 31.1129 14.3037 32.308 14.3114C35.6059 14.3114 38.1892 13.4755 40.2064 11.7481C41.2899 10.8444 42.1609 9.70988 42.7568 8.42632V8.37649C42.8282 8.21594 42.8942 8.04432 42.9601 7.87269C43.0261 7.70106 43.0811 7.52944 43.136 7.31906C43.191 7.10868 43.2405 6.93705 43.2844 6.72113C43.3284 6.50522 43.3394 6.41663 43.3614 6.26162C43.3834 6.1066 43.4054 5.91836 43.4218 5.74674C43.4218 5.74674 43.4218 5.58065 43.4218 5.54189C43.4218 5.50314 43.4218 5.4201 43.4218 5.3592V5.32598C43.4449 4.10446 43.2475 2.88888 42.8392 1.73843C42.8309 1.71686 42.8167 1.69811 42.7982 1.68438C42.7797 1.67065 42.7577 1.66252 42.7348 1.66093C42.7135 1.66038 42.6925 1.66578 42.674 1.67653C42.6556 1.68728 42.6405 1.70296 42.6304 1.72183C41.2947 3.98065 38.2662 4.44016 35.7763 4.58964L33.2534 4.71698C28.6583 4.93843 23.9094 5.16542 19.4682 6.93151C16.8684 7.89605 14.5242 9.45118 12.6177 11.4761C10.7112 13.5011 9.29371 15.9414 8.4753 18.6076C6.12831 25.672 7.20563 32.2326 11.5918 37.5807C11.6161 37.6071 11.6496 37.623 11.6853 37.6249C11.7052 37.6227 11.7243 37.616 11.7414 37.6055C11.7585 37.595 11.7731 37.5808 11.7842 37.564C11.8721 37.409 11.9656 37.254 12.07 37.1045C12.3451 36.7286 12.6929 36.4127 13.0925 36.1757C13.4921 35.9388 13.9352 35.7858 14.395 35.726C14.7428 35.6323 15.1014 35.5858 15.4613 35.5876C15.4779 35.5882 15.4945 35.5851 15.5097 35.5784C15.525 35.5717 15.5385 35.5616 15.5493 35.5488C15.562 35.5383 15.5718 35.5246 15.5776 35.509C15.5834 35.4934 15.585 35.4766 15.5822 35.4602C15.4613 33.5004 15.137 30.1509 18.27 27.5876C20.4686 26.4139 22.0186 23.6346 22.3374 21.7633C23.0798 21.6285 23.7817 21.3244 24.3895 20.8744C24.9973 20.4244 25.4949 19.8403 25.8441 19.1668Z" fill="#F88D62"/><path d="M17.2039 68.9384C14.2853 69.7633 12.5209 73.683 12.9276 76.49C12.9315 76.5023 12.9392 76.5132 12.9495 76.5209C12.9599 76.5286 12.9725 76.5327 12.9854 76.5327C12.9982 76.5327 13.0108 76.5286 13.0212 76.5209C13.0316 76.5132 13.0392 76.5023 13.0431 76.49C13.3028 74.9624 13.8196 73.4907 14.5711 72.1384C15.2856 70.9204 16.4179 70.1066 17.2369 68.9827C17.2424 68.9605 17.2424 68.9329 17.2039 68.9384Z" fill="#F88D62"/><path d="M70.4814 74.3972C70.6633 74.0327 70.7525 73.6284 70.741 73.2207C70.7295 72.8129 70.6176 72.4144 70.4155 72.0609C70.5659 71.3908 70.4578 70.6883 70.1132 70.0955C69.8957 69.668 69.5328 69.3337 69.0907 69.1538C68.6486 68.9738 68.1569 68.9603 67.7057 69.1155C67.255 69.3038 66.8428 69.5861 66.414 69.8131C66.1777 69.9405 66.0733 69.9515 66.0788 69.9958C66.0293 69.492 66.4415 69.1266 66.7603 68.8111C67.6452 67.9474 68.2059 67.2498 67.9805 65.9543C67.8331 65.3588 67.5041 64.8249 67.0397 64.4277C66.5753 64.0304 65.9989 63.7899 65.3917 63.7398C64.7402 63.7091 64.1021 63.9333 63.6108 64.3654C60.2305 61.9183 55.6629 62.8816 52.0683 64.4373C51.9255 64.2305 51.7554 64.0442 51.5626 63.8837C52.1122 61.6969 51.678 59.1335 50.8645 57.1681C50.2279 55.8501 49.8455 54.4223 49.7378 52.9605C49.7378 51.2996 50.4908 49.6387 51.3372 48.2768C52.7113 46.0623 54.7505 44.5508 56.3995 42.6021C59.9062 38.4664 61.8959 32.5315 61.1869 27.1003C61.9892 26.5 62.6313 25.7087 63.0557 24.7972C63.4747 23.9558 63.7356 23.0436 63.8252 22.1066C63.9681 20.6616 64.6552 19.7425 65.694 18.7848C67.0736 17.528 69.1897 15.9778 68.1619 13.863C67.222 11.9418 65.1993 13.6913 64.3858 14.6104C64.3529 14.6436 63.4569 15.546 63.4404 15.319C63.4329 14.9002 63.4754 14.482 63.5669 14.0733C63.6768 13.3979 63.7702 12.7225 63.8527 12.047C64.0286 10.6962 63.9461 8.99652 62.3906 8.59237C60.2635 8.03874 59.8842 12.8498 59.472 14.8484C58.9223 13.4533 58.8619 11.8699 58.5761 10.4194C58.3507 9.26227 57.3174 7.72316 56.0147 7.68441C55.7044 7.66701 55.3941 7.71811 55.1055 7.83415C54.8169 7.95018 54.557 8.12835 54.3439 8.35616C54.1308 8.58399 53.9697 8.85596 53.8719 9.15305C53.7741 9.45014 53.7419 9.76518 53.7777 10.0761C54.0195 11.582 54.6296 12.883 54.8769 14.3446C54.1899 13.0602 53.4589 11.5765 52.1287 11.0726C51.0789 10.674 49.7048 10.7571 49.2431 11.9363C48.8418 12.955 49.7103 14.3502 50.2269 15.164C50.9909 16.3598 52.0298 17.3232 52.4695 18.7183C52.8652 19.9695 51.7769 20.3072 50.8206 19.9529C50.7106 19.9142 50.6062 19.8643 50.4963 19.8201C50.4989 19.785 50.4989 19.7499 50.4963 19.7149C49.8312 15.4021 47.3688 11.0284 43.2574 9.28995C44.725 6.46642 44.5601 3.29963 43.1915 0.260189C43.1713 0.211645 43.1415 0.16775 43.1039 0.131182C43.0663 0.0946126 43.0218 0.0661354 42.9729 0.0474863C42.924 0.0288372 42.8719 0.0204073 42.8197 0.0227101C42.7675 0.0250128 42.7163 0.0380001 42.6693 0.0608803C42.5846 0.0743215 42.5057 0.112401 42.4422 0.170435C42.3787 0.228469 42.3335 0.303926 42.312 0.387524C41.57 3.06711 38.6019 3.51002 36.2659 3.70932C33.0175 3.9806 29.7581 3.88649 26.5262 4.30725C22.0685 4.86088 17.2481 6.27265 13.7249 9.20137C9.64653 12.5841 7.60734 17.5059 6.5795 22.6325C5.4802 28.2408 7.64581 34.137 11.246 38.4055C11.2715 38.4324 11.3012 38.4548 11.3339 38.472C11.023 39.5085 11.0774 40.6214 11.4878 41.6221C12.5871 44.4512 16.5721 45.7467 18.8696 43.6816C20.0893 45.6133 21.7519 47.2215 23.7175 48.3709C22.4313 50.0318 21.9256 52.1356 21.5739 54.2394C21.1735 57.0182 21.1883 59.8416 21.6178 62.6159C21.7772 63.8505 22.0136 65.0685 22.2829 66.281C22.0132 66.3744 21.7536 66.4949 21.5079 66.6408C21.1061 66.851 20.7479 67.1366 20.4526 67.4823C19.9352 67.1248 19.3352 66.9075 18.7102 66.8512C18.8366 64.8249 17.446 62.4609 15.3793 62.4221C14.8568 62.4071 14.3391 62.5269 13.8754 62.7701C13.4117 63.0133 13.0175 63.3719 12.73 63.8117C12.0045 64.8692 12.4937 66.0595 13.2192 66.9342C13.5073 67.2432 13.7754 67.5705 14.0217 67.9142C14.6758 68.9107 13.8183 68.3072 13.604 68.1688C13.2203 67.8836 12.8097 67.637 12.3783 67.4325C11.279 67.0117 10.2511 67.9252 9.80592 68.8719C9.58545 69.3488 9.54633 69.8905 9.69598 70.3944C9.43156 70.6911 9.26268 71.0616 9.21166 71.457C9.16063 71.8524 9.22985 72.2541 9.41017 72.609C9.21094 72.918 9.11234 73.282 9.1281 73.6501C9.14387 74.0183 9.27321 74.3723 9.49812 74.663C9.33805 75.0653 9.30493 75.5076 9.40328 75.9296C9.50163 76.3516 9.72666 76.7328 10.0478 77.0214C10.377 77.2572 10.7514 77.4212 11.1471 77.5031C11.9167 77.6789 12.6204 78.0727 13.1753 78.638C15.1815 80.5647 17.8363 81.6055 20.4801 82.364C20.3026 82.6493 20.192 82.9716 20.1568 83.3064C20.1215 83.6412 20.1625 83.9797 20.2767 84.2962C20.513 84.8498 21.2935 85.647 21.9256 85.5585C22.162 87.0588 24.0912 87.2194 25.2235 86.5162C25.3612 86.7506 25.5489 86.951 25.7731 87.1031C27.0703 87.9889 28.373 87.1695 29.159 86.0346C29.2057 86.2627 29.2644 86.4882 29.3349 86.71C29.4634 87.057 29.6857 87.3609 29.9766 87.5875C30.2675 87.814 30.6154 87.9542 30.9812 87.9922C31.3469 88.0302 31.716 87.9645 32.0466 87.8025C32.3773 87.6405 32.6564 87.3887 32.8526 87.0754C33.6936 85.6581 31.8797 81.2733 35.0842 82.0927C36.1835 82.364 37.0629 82.9675 38.2062 82.5356C38.389 82.4657 38.5562 82.3596 38.6978 82.2236C38.8394 82.0877 38.9525 81.9246 39.0306 81.7439C40.6496 81.9971 42.3037 81.8978 43.8814 81.4528C45.4591 81.0077 46.9238 80.2273 48.1768 79.164C49.362 79.5111 50.6258 79.4724 51.7879 79.0533C51.4911 81.3619 53.0191 83.0671 55.3057 83.51C56.9003 83.7342 58.5249 83.5787 60.0491 83.056C61.7033 82.6488 63.3099 82.0661 64.842 81.3176C65.3928 80.9904 65.9069 80.6043 66.3756 80.1661C67.1018 79.5865 67.9731 79.2205 68.8929 79.1086C70.1077 78.8484 70.5034 77.6194 70.3 76.5287C70.5535 76.2402 70.708 75.8771 70.7407 75.4932C70.7734 75.1093 70.6825 74.725 70.4814 74.3972ZM55.5475 8.67541C56.2291 8.39306 56.8612 9.11278 57.1965 9.56123C57.8176 10.3972 57.8286 11.5931 57.988 12.5896C58.1106 13.5794 58.3543 14.55 58.7135 15.4796C58.4442 15.4353 58.1638 15.4021 57.9055 15.3744C57.2284 15.2978 56.5458 15.2849 55.8663 15.3356C55.9135 14.0617 55.7003 12.7916 55.2397 11.6041C55.0451 11.0919 54.88 10.5687 54.745 10.0374C54.6896 9.75071 54.7408 9.45357 54.8888 9.20245C55.0367 8.95133 55.2712 8.76375 55.5475 8.67541ZM19.3368 42.6297C19.2853 42.5361 19.201 42.4651 19.1004 42.4304C19.0144 42.3704 18.9082 42.3473 18.8052 42.3659C18.7022 42.3846 18.6107 42.4436 18.5508 42.5301C16.7974 44.6616 13.6974 43.6374 12.5047 41.5557C12.2204 41.0418 12.0639 40.4661 12.0486 39.878C12.0332 39.2899 12.1596 38.7068 12.4167 38.1785C13.1588 36.5508 14.9066 36.2851 16.4511 36.5619C17.3394 36.9513 18.1714 37.4597 18.9246 38.0733C18.9379 38.0821 18.9536 38.0865 18.9695 38.086C18.9854 38.0854 19.0007 38.0799 19.0134 38.0702C19.026 38.0604 19.0354 38.047 19.0402 38.0317C19.0449 38.0164 19.0449 38 19.04 37.9848C18.8761 37.4515 18.5925 36.9634 18.2112 36.5583C17.83 36.1531 17.3613 35.8418 16.8414 35.6484H16.8084H16.77H16.671C16.5685 34.5414 16.5998 33.426 16.7645 32.3266C17.0107 31.2588 17.3472 30.2141 17.7703 29.2041C17.7748 29.1976 17.7772 29.1899 17.7772 29.182C17.7772 29.1741 17.7748 29.1663 17.7703 29.1598C17.7628 29.1555 17.7543 29.1532 17.7456 29.1532C17.7369 29.1532 17.7283 29.1555 17.7208 29.1598C15.951 30.5439 15.4178 33.2623 15.5222 35.4547C15.1514 35.4533 14.782 35.4998 14.4229 35.5931C13.9502 35.6593 13.4954 35.8198 13.0848 36.065C12.6743 36.3103 12.3164 36.6354 12.032 37.0214C11.9221 37.1764 11.8286 37.3315 11.7352 37.492C7.21159 31.9557 6.4146 25.3121 8.64067 18.6353C9.44781 15.9838 10.8511 13.5555 12.7414 11.5391C14.6318 9.52266 16.9583 7.97247 19.5402 7.00898C24.7618 4.96607 30.3077 5.02143 35.8097 4.70033C38.3766 4.55085 41.4161 4.05811 42.7627 1.77161C43.1583 2.9073 43.3446 4.10621 43.3124 5.30932C43.3124 5.40898 43.3124 5.50863 43.3124 5.60275C43.3124 5.69687 43.3124 5.74116 43.3124 5.80759C43.3124 5.97922 43.2794 6.14531 43.2519 6.31694C43.2244 6.48856 43.208 6.6159 43.1805 6.76538C43.1365 6.95361 43.0925 7.14738 43.0376 7.31901C42.9881 7.49064 42.9331 7.65673 42.8672 7.82835C42.8012 7.99998 42.7407 8.16053 42.6693 8.32109C42.6672 8.33763 42.6672 8.35437 42.6693 8.37091C42.0742 9.62691 41.2153 10.7377 40.1519 11.6263C36.7276 14.5495 32.2865 14.3944 28.1311 13.8408C28.1311 13.8408 28.0927 13.8685 28.1311 13.8796C28.3675 14.0014 28.6093 14.1121 28.8567 14.2173C32.6163 15.7564 37.5136 14.9425 40.6741 12.5066C41.4634 11.8858 42.145 11.1374 42.6913 10.292L42.8232 10.0872C46.5553 11.5654 48.7649 15.463 49.5069 19.3052C49.2834 19.2205 49.0475 19.1737 48.8088 19.1668C48.5113 19.1517 48.215 19.2145 47.9487 19.349C47.6825 19.4835 47.4553 19.6851 47.2893 19.9342C47.1233 20.1834 47.0241 20.4715 47.0014 20.7707C46.9788 21.0699 47.0334 21.3699 47.1599 21.6415C47.5721 22.782 48.8088 23.1917 49.9796 23.5792C49.9768 23.6013 49.9768 23.6236 49.9796 23.6457C50.5292 26.1868 52.0628 28.0194 53.0246 30.3834C54.047 32.9135 53.9041 35.9197 53.3379 38.5273C52.3486 43.1059 48.7099 46.1342 44.5876 47.8394C38.7393 50.2699 30.643 50.8844 24.8003 47.7342C24.7519 47.6925 24.6959 47.6605 24.6354 47.6401C22.4417 46.4978 20.607 44.7629 19.3368 42.6297ZM50.98 24.0277C51.1534 24.1043 51.3223 24.1912 51.4856 24.2879C52.4695 24.8913 53.2665 25.6332 54.1734 26.0706C53.925 27.0413 53.5826 27.9852 53.1511 28.8886C52.3706 27.2996 51.4746 25.7716 50.98 24.0277ZM22.8051 71.9169C22.7593 71.3074 22.6356 70.7063 22.4368 70.1287C22.1545 69.3455 21.704 68.6347 21.1176 68.047C21.5315 67.7247 21.9934 67.4706 22.4863 67.2941C22.7721 68.5176 23.0854 69.7301 23.3767 70.9481C23.5416 71.618 23.712 72.2989 23.8934 72.9744C23.4964 72.6595 23.1318 72.3052 22.8051 71.9169ZM14.4944 78.7654C13.8923 78.1737 13.2554 77.6191 12.5871 77.1045C11.5593 76.4457 10.1467 76.7336 10.1962 75.2498C10.4351 75.3553 10.6976 75.3945 10.9567 75.3634C11.2157 75.3322 11.4617 75.2318 11.6692 75.0726C11.6839 75.0621 11.6951 75.0473 11.7012 75.0301C11.7072 75.013 11.7079 74.9944 11.7031 74.9768C11.6983 74.9593 11.6883 74.9437 11.6743 74.9321C11.6604 74.9205 11.6433 74.9135 11.6252 74.9121C11.1003 74.8935 10.6001 74.6829 10.2182 74.3197C10.0915 74.1994 9.99912 74.0471 9.95078 73.8786C9.90244 73.7102 9.89987 73.5317 9.94333 73.3619C10.116 73.5183 10.3152 73.6421 10.5315 73.7273C10.7746 73.8054 11.0319 73.828 11.2848 73.7935C11.5376 73.7591 11.7797 73.6684 11.9935 73.528C12.054 73.4948 11.9935 73.4173 11.9605 73.4117C10.9657 73.2955 9.55308 72.2214 10.0588 71.1972C10.2108 71.4404 10.4093 71.6508 10.6428 71.8161C10.8762 71.9814 11.14 72.0984 11.4186 72.1602C11.6973 72.222 11.9854 72.2274 12.2662 72.1762C12.547 72.1249 12.8149 72.018 13.0543 71.8616C13.0757 71.8487 13.0923 71.8292 13.1018 71.806C13.1112 71.7829 13.113 71.7572 13.1068 71.733C13.1006 71.7087 13.0868 71.6871 13.0675 71.6713C13.0481 71.6556 13.0242 71.6466 12.9994 71.6457C12.258 71.5984 11.5477 71.3284 10.9602 70.8706C9.89387 69.9349 11.0041 67.737 12.3453 68.4955C12.9279 68.8221 14.4614 70.245 14.9561 69.0214C15.7586 67.0117 12.1144 65.8934 13.7689 64.0055C14.7308 62.8983 16.0774 63.4519 16.8964 64.3654C18.0286 65.6166 17.8472 67.0671 17.9957 68.6117C17.9957 68.645 18.0396 68.6726 18.0616 68.6394C18.3005 68.3339 18.4728 67.9812 18.5673 67.6041C20.1833 67.7813 21.4584 69.3924 21.7827 70.9259C22.1455 72.6588 21.6948 74.2477 21.277 75.9086C21.2714 75.9244 21.2713 75.9417 21.277 75.9575C21.2826 75.9733 21.2935 75.9866 21.3079 75.9951C21.3222 76.0037 21.3391 76.0069 21.3555 76.0043C21.372 76.0016 21.387 75.9932 21.398 75.9806C22.1652 75.2687 22.6561 74.3052 22.7831 73.2623C23.2516 73.695 23.7637 74.0772 24.3111 74.4028C24.7588 75.9647 25.2965 77.499 25.9216 78.9979L25.3225 79.1861C23.8657 79.5955 22.5089 80.3043 21.3375 81.2678C21.2191 81.3695 21.1071 81.4786 21.0022 81.5944C18.7762 81.0187 16.2643 80.227 14.4944 78.7654ZM36.898 81.7938C35.282 81.528 33.7156 80.3432 32.5833 82.2145C32.2754 82.8576 32.1264 83.566 32.1491 84.2796C32.1161 85.0768 32.6053 86.6491 31.5994 87.0477C29.148 88.0443 29.8131 82.3695 29.9505 81.2955C29.949 81.2718 29.941 81.249 29.9274 81.2296C29.9138 81.2102 29.8951 81.1951 29.8733 81.1859C29.8516 81.1767 29.8278 81.1737 29.8045 81.1775C29.7812 81.1812 29.7594 81.1914 29.7416 81.2069C28.9996 82.0761 28.7907 83.4768 28.9006 84.7778C28.4774 85.7965 27.2517 87.2415 26.1524 86.3003C25.5643 85.791 25.7237 84.8 25.8281 84.1245C25.9765 83.1612 26.4987 82.3861 26.8505 81.5003C26.8505 81.4394 26.801 81.3841 26.746 81.4007C25.3884 81.8214 24.52 84.1024 24.8717 85.7301C24.2232 86.0678 23.6515 86.2837 22.9865 85.7301C22.5193 85.3315 22.827 84.6228 23.0304 84.1633C23.5462 83.1867 24.206 82.2944 24.9872 81.5169C24.9971 81.5085 25.0038 81.4968 25.006 81.4839C25.0082 81.471 25.0058 81.4577 24.9992 81.4465C24.9926 81.4352 24.9823 81.4266 24.97 81.4223C24.9577 81.418 24.9443 81.4181 24.9322 81.4228C23.4701 81.6609 22.151 83.2 21.8981 84.7446H21.8487C20.8483 84.4567 20.8373 83.4768 21.2715 82.7183C21.854 81.8764 22.6517 81.2088 23.5801 80.7861C25.5973 79.6789 27.8068 79.391 29.934 78.6657C29.934 78.6657 29.9615 78.6214 29.934 78.6159C28.8529 78.3791 27.7283 78.4422 26.6801 78.7986C25.1905 73.8491 23.5911 68.9882 22.6732 63.8782C22.1737 61.2095 22.0295 58.4856 22.2444 55.7785C22.4423 53.409 22.9425 50.7294 24.443 48.8194C30.6595 52.0194 39.1021 51.2221 45.2966 48.6477C49.2211 46.9868 52.2991 44.1633 53.7996 40.1329C54.6488 37.7234 54.8702 35.1348 54.4427 32.6145C54.2665 31.6908 53.9824 30.7914 53.5963 29.9349C53.6624 29.8939 53.7172 29.8368 53.7557 29.7688C54.3131 28.7081 54.7113 27.57 54.9374 26.3917C55.4333 26.503 55.9475 26.503 56.4434 26.3917C56.5534 26.3917 56.5589 26.1813 56.4434 26.1647C54.745 25.8602 53.5138 24.7972 52.1617 23.8062C50.9085 22.8927 48.3142 22.7598 47.7645 21.1986C47.3468 19.9861 48.6055 20.1245 49.0562 20.2463C49.3577 20.3394 49.6502 20.4599 49.9301 20.6062C50.3787 20.8521 50.8657 21.0188 51.3702 21.0989C51.7812 21.1523 52.198 21.0636 52.5524 20.8474C52.9069 20.6312 53.178 20.3002 53.3214 19.9086C53.8711 17.9156 51.9583 16.2159 50.958 14.7322C50.5292 14.0899 49.3365 12.1965 50.5787 11.8367C52.5794 11.2498 53.7557 14.3778 54.5856 15.6733C54.3797 15.7566 54.1938 15.8831 54.0403 16.0444C53.8867 16.2058 53.7691 16.3982 53.6952 16.609C53.6931 16.6216 53.694 16.6346 53.6981 16.6467C53.7021 16.6588 53.7091 16.6698 53.7183 16.6785C53.7276 16.6873 53.7388 16.6936 53.7511 16.697C53.7634 16.7003 53.7763 16.7005 53.7887 16.6976C56.4434 15.5903 60.5658 16.2048 62.9897 17.6553C63.0227 17.6553 63.0502 17.6277 63.0282 17.6C62.2555 16.7472 61.2558 16.1361 60.1481 15.8394C60.1695 15.814 60.188 15.7861 60.203 15.7564C60.5615 14.6334 60.8227 13.4812 60.9835 12.3128C61.0989 11.7592 62.0443 8.08303 62.8193 10.209C63.2151 11.283 62.7809 12.7557 62.616 13.8519C62.506 14.5716 62.1048 16.0664 63.0062 16.4318C64.067 16.8747 65.1169 15.2194 65.6995 14.6048C66.2821 13.9903 67.3484 13.9017 67.4694 15.0145C67.5463 15.8062 66.7933 16.5149 66.2821 17.0076C65.6335 17.6332 64.919 18.1758 64.2924 18.8235C63.0502 20.1024 63.0777 21.6194 62.6435 23.2526C62.4169 24.1825 61.9883 25.0502 61.3885 25.7931C60.7888 26.5361 60.0328 27.1357 59.1752 27.5488C59.1515 27.566 59.1336 27.59 59.1239 27.6178C59.1142 27.6455 59.1132 27.6756 59.121 27.7039C59.1288 27.7323 59.145 27.7575 59.1675 27.7763C59.1899 27.7951 59.2176 27.8065 59.2466 27.809C59.6227 27.7776 59.9927 27.6937 60.3459 27.5598C60.6885 32.9065 58.9451 38.1767 55.4871 42.2477C54.1789 43.7924 52.5849 45.0159 51.3537 46.6436C49.8532 48.6256 48.6385 51.0173 48.8088 53.5806C48.9543 54.7769 49.2805 55.9438 49.7762 57.0408C50.4441 58.6169 50.7971 60.31 50.8151 62.0235C50.8151 64.764 49.1991 66.6796 46.8631 67.8699C44.2303 69.2152 41.0698 69.4643 38.1677 69.5308C35.6998 69.6027 32.1601 69.636 30.1978 67.8422C29.6686 64.0475 29.6778 60.1962 30.2253 56.4041C30.2253 56.3266 30.1263 56.2657 30.0824 56.3488C28.2575 59.9695 28.7357 64.7308 29.3623 68.6062C29.879 71.8007 30.6155 76.3017 33.9299 77.7024C34.9867 78.0599 36.0219 78.4796 37.0299 78.9592C38.2281 79.6346 39.1955 82.1702 36.887 81.7938H36.898ZM39.2065 80.8138C39.234 78.8318 36.975 77.8519 35.4579 77.2872C34.1168 76.7944 33.045 76.3515 32.248 75.0726C31.665 74.0029 31.2497 72.8488 31.0168 71.6512C30.7914 70.7654 30.61 69.8796 30.4671 68.9882C32.1161 70.0955 34.3147 70.3169 36.2384 70.4166C39.3536 70.6168 42.4796 70.2721 45.478 69.3979C47.6766 68.7225 49.7378 67.4879 50.936 65.4837C51.0655 65.2624 51.1812 65.0331 51.2823 64.7972C52.1012 65.8602 51.9693 67.5654 51.8759 68.8111C51.7556 70.8715 51.262 72.8923 50.4193 74.7737C49.4263 76.8493 47.8038 78.5532 45.7862 79.639C43.7686 80.7247 41.4605 81.1362 39.1955 80.8138H39.2065ZM48.9353 78.4443C49.8633 77.5184 50.6389 76.4494 51.2328 75.2775C52.2019 73.1794 52.7457 70.9076 52.8323 68.5951C52.9715 67.4419 52.857 66.2719 52.497 65.1681C55.6684 63.8117 59.9282 62.8373 62.9403 64.9633C62.6676 65.2613 62.4178 65.5796 62.1927 65.9156C61.7943 66.5371 61.586 67.2629 61.5936 68.0028C59.8073 68.0028 58.3287 69.5419 57.6197 71.0976C57.388 71.6301 57.2165 72.1873 57.1085 72.7585C56.1686 73.6055 55.1133 74.2754 54.1844 75.045C53.7977 73.0999 54.0285 71.0817 54.844 69.2761C55.8663 67.0616 57.7516 66.1591 59.8952 65.2899C57.5812 64.7363 55.542 66.5024 54.4262 68.3737C53.196 70.5989 52.8615 73.2151 53.4918 75.6816C52.8174 76.334 52.3069 77.1386 52.0023 78.0291C51.049 78.5029 49.9678 78.6488 48.9243 78.4443H48.9353ZM66.6889 78.854C65.5896 79.4408 64.8036 80.3986 63.6768 80.9578C62.4335 81.4871 61.1459 81.904 59.8293 82.2034C58.315 82.6971 56.7051 82.8167 55.1353 82.5522C51.9748 81.9377 52.2991 78.4332 53.937 76.4623C54.5801 75.6816 55.8993 75.1391 56.8502 74.3972C56.7589 74.9886 56.6211 75.5718 56.4379 76.1412C56.4379 76.2076 56.4929 76.2463 56.5479 76.2242C57.7791 75.6429 57.9055 74.054 58.1089 72.8526C58.4332 70.9647 59.5984 68.8996 61.7091 68.7834C61.7929 69.1602 61.9478 69.5173 62.1653 69.8353C62.1653 69.863 62.2312 69.863 62.2367 69.8353C62.4401 68.6284 62.3686 67.5155 63.0337 66.4249C63.9076 64.9799 65.7435 63.9668 66.8812 65.7162C67.8816 67.2498 65.5456 68.2796 65.2323 69.7744C64.973 69.5457 64.68 69.3589 64.3638 69.2207C64.3638 69.2207 64.2924 69.2207 64.3034 69.2706C64.7651 70.6879 65.7929 71.8505 66.3316 73.2567C66.8325 74.7267 67.1842 76.244 67.3814 77.7855C67.3814 77.8685 67.5133 77.8574 67.5353 77.7855C67.9488 76.2018 67.8348 74.5253 67.211 73.0131C66.9549 72.2804 66.6156 71.5801 66.1997 70.9259C66.5882 70.8225 66.9589 70.66 67.299 70.4443C67.5714 70.2766 67.8562 70.1304 68.1509 70.0069C68.9864 69.6803 69.547 70.854 69.5965 71.4962C69.7064 72.7861 68.1839 72.6034 67.3979 72.8028C67.3752 72.8117 67.3557 72.8272 67.342 72.8475C67.3282 72.8678 67.3209 72.8917 67.3209 72.9163C67.3209 72.9408 67.3282 72.9647 67.342 72.985C67.3557 73.0052 67.3752 73.0208 67.3979 73.0297C68.1784 73.3564 69.0908 73.8768 69.8548 73.1239C69.8834 73.095 69.9092 73.0635 69.9318 73.0297C69.9701 73.3099 69.9476 73.5952 69.8658 73.8657C69.6954 74.4692 68.8984 74.7848 68.3268 74.8235C68.3141 74.8239 68.3018 74.8283 68.2918 74.8361C68.2817 74.8438 68.2743 74.8546 68.2706 74.8669C68.267 74.8792 68.2673 74.8923 68.2714 74.9043C68.2756 74.9164 68.2834 74.9269 68.2938 74.9342C68.4624 75.079 68.6608 75.1844 68.8746 75.2428C69.0884 75.3011 69.3124 75.3111 69.5305 75.2719C69.6697 75.2359 69.8017 75.176 69.9208 75.0948C69.9556 75.2775 69.9441 75.4661 69.8874 75.6432C69.8308 75.8203 69.7307 75.9801 69.5965 76.1079C69.1902 76.456 68.6671 76.6342 68.1344 76.6062C68.0685 76.6062 68.019 76.7059 68.074 76.7502C68.2714 76.9226 68.5098 77.0408 68.766 77.0932C69.0221 77.1456 69.2874 77.1304 69.536 77.0491C69.3931 78.4443 67.7717 78.256 66.6779 78.854H66.6889Z" fill="#F88D62"/><path d="M42.8617 32.8415C43.136 32.8115 43.3993 32.7163 43.6299 32.5637C43.8605 32.4111 44.0518 32.2055 44.1882 31.9639C44.3245 31.7222 44.4019 31.4514 44.414 31.1738C44.4261 30.8961 44.3725 30.6196 44.2578 30.3668C44.0528 29.8987 43.6826 29.5238 43.2189 29.3149C42.4879 28.9717 41.8448 28.6339 41.1522 28.2076H41.1138C41.1138 29.0879 41.9437 29.6139 42.6693 29.9018C44.1313 30.4554 43.4663 31.762 42.7847 32.7031C42.7462 32.7917 42.8122 32.8526 42.8617 32.8415Z" fill="#F88D62"/><path d="M16.2202 38.3945C15.8987 38.241 15.5454 38.1669 15.1898 38.1785C14.8342 38.19 14.4865 38.2869 14.1755 38.4609C13.7468 38.6768 13.2356 39.1972 13.3785 39.7232C13.3785 39.7509 13.4224 39.7509 13.4389 39.7232C13.7178 39.3722 14.1064 39.1265 14.5415 39.026C14.9765 38.9255 15.4325 38.9761 15.8354 39.1696H15.7749C15.5196 39.2879 15.2933 39.4613 15.1119 39.6776C14.9305 39.8938 14.7984 40.1475 14.7251 40.4208C14.3184 41.6775 15.9069 42.818 16.9237 41.8879C18.067 40.8581 17.5228 39.0533 16.2202 38.3945ZM16.528 40.9301C16.2367 41.6166 15.4671 41.3066 15.687 40.6145C15.8409 40.1107 16.2092 40.1218 16.6159 40.0609C16.6838 40.3524 16.6529 40.6584 16.528 40.9301Z" fill="#F88D62"/><path d="M30.2142 30.0899C30.4616 30.7764 30.9672 31.629 31.6928 31.8726C31.8385 31.9566 32.0051 31.9966 32.1727 31.9878C32.3404 31.979 32.502 31.9217 32.6382 31.8228C32.8366 31.734 32.9991 31.5798 33.099 31.3856C33.1989 31.1914 33.2302 30.9688 33.1878 30.7543C33.215 30.5577 33.215 30.3584 33.1878 30.1619C33.0724 29.2816 32.4678 27.9473 31.4784 27.8255C30.1648 27.6761 29.8844 29.1321 30.2142 30.0899Z" fill="#322A2D"/><path d="M42.1797 24.1495C42.3116 24.9135 42.8887 26.1647 43.7681 26.2422C43.93 26.2717 44.097 26.2503 44.2465 26.181C44.3959 26.1117 44.5206 25.9978 44.6036 25.8547C44.7267 25.6715 44.8044 25.4613 44.8302 25.2417C44.856 25.0221 44.8292 24.7994 44.752 24.5924C44.6648 24.1861 44.4921 23.8034 44.2456 23.4701C43.9991 23.1368 43.6844 22.8606 43.3229 22.6602C42.405 22.3114 42.0532 23.4685 42.1797 24.1495Z" fill="#322A2D"/><path d="M37.4883 38.3336C37.5221 38.3428 37.5513 38.3661 37.5714 38.4C37.5915 38.4338 37.6014 38.4763 37.5994 38.5208C37.5672 38.8399 37.4976 39.1564 37.3928 39.4597L37.4919 39.5399L37.5467 39.591C37.9439 39.9152 38.3762 40.1737 38.8342 40.3607C39.1448 40.4803 39.4628 40.5758 39.7866 40.6467C40.1201 40.7192 40.4587 40.767 40.8008 40.7898C41.3977 40.8271 42.004 40.769 42.6054 40.6168C42.9605 40.5027 43.3101 40.35 43.65 40.1605C43.7194 40.1202 43.7952 40.1092 43.865 40.1292C43.904 40.1268 43.9421 40.1351 43.9764 40.1536C44.0239 40.1804 44.0653 40.2199 44.0981 40.2697C44.1308 40.3194 44.1542 40.3783 44.1667 40.4427C44.1936 40.5732 44.1771 40.7174 44.1207 40.8441C44.0644 40.9708 43.9727 41.0698 43.8654 41.1198C43.299 41.3992 42.7101 41.5677 42.121 41.6188C41.5458 41.6779 40.9747 41.6452 40.4215 41.5216L40.3246 41.5004C39.7445 41.3584 39.1864 41.1316 38.6611 40.8246C38.1555 40.5361 37.6789 40.1833 37.238 39.7712L37.2202 39.852C37.1253 40.0176 37.0121 40.1666 36.8845 40.2936C36.8578 40.3216 36.8271 40.3424 36.7946 40.3545C36.762 40.3666 36.7285 40.3696 36.6965 40.3633C36.6524 40.3533 36.6141 40.3242 36.5877 40.2809C36.5551 40.2288 36.5412 40.1607 36.5491 40.0907C36.5569 40.0208 36.5858 39.9545 36.6297 39.9056C36.727 39.8067 36.8199 39.7008 36.9076 39.5884C36.9442 39.5377 36.9821 39.4808 37.0137 39.4291C37.0346 39.3979 37.0537 39.365 37.0709 39.3308C37.1157 39.2497 37.1548 39.1645 37.1879 39.0761C37.2252 38.9836 37.2548 38.8874 37.2764 38.7891C37.3032 38.6909 37.3252 38.5912 37.342 38.4907C37.3483 38.4422 37.3691 38.3965 37.4 38.3632C37.431 38.33 37.4697 38.3116 37.5083 38.312" fill="#F88D62"/></g></g></symbol><symbol id="ok" viewBox="0 0 30 30"><g fill="none"><g clip-path="url(#clip0_93_436)"><circle cx="15" cy="15" r="15" fill="#FF9EA8"/><path d="M19.6746 16.8462C20.0581 16.4716 20.1129 15.9365 19.7842 15.4013C19.5102 14.9732 19.0172 14.7592 18.4693 14.8662C18.2502 14.9197 18.0311 15.0268 17.8119 15.1873C16.1136 16.311 13.8127 16.2575 12.1143 15.1338C12.0048 15.0803 11.8952 15.0268 11.7856 14.9732C11.183 14.7057 10.5804 14.8127 10.2517 15.3478C9.86818 15.883 9.92296 16.4716 10.416 16.9532C10.5256 17.0602 10.6352 17.1137 10.6899 17.2207L10.7447 17.2743C11.5117 17.8629 12.443 18.2375 13.6483 18.398L12.9361 19.0937C12.3335 19.6823 11.6761 20.3244 11.0734 20.913C10.9091 21.0736 10.6899 21.3411 10.6899 21.7157C10.6899 22.1973 10.9639 22.6789 11.4569 22.893C11.6213 23 11.7856 23 11.95 23C12.2239 23 12.5526 22.893 12.7717 22.6254C13.5935 21.8227 14.2509 21.1806 14.9083 20.5385C14.9631 20.485 14.9631 20.485 14.9631 20.485C14.9631 20.485 15.0179 20.485 15.0179 20.5385C15.4562 21.0201 15.9493 21.4482 16.3875 21.9298C16.6067 22.1438 16.8258 22.3579 17.0449 22.5719C17.3189 22.8395 17.538 22.9465 17.8667 22.9465C18.3598 23 18.9076 22.6789 19.1268 22.1973C19.3459 21.7692 19.2363 21.2341 18.8528 20.913C18.305 20.3779 17.7571 19.7893 17.1545 19.2542L16.2232 18.3445C16.7162 18.291 17.2641 18.184 17.7571 17.9699C18.5789 17.7023 19.1815 17.3278 19.6746 16.8462Z" fill="white"/><path d="M14.9631 15.3478C17.3189 15.3478 19.2363 13.5284 19.2363 11.2274C19.2363 10.1037 18.798 9.03345 17.9763 8.23077C17.1545 7.4281 16.1136 7 15.0179 7C12.6622 7 10.7995 8.87291 10.7447 11.1204C10.7447 12.2441 11.183 13.2609 12.0048 14.0635C12.7718 14.9197 13.8127 15.3478 14.9631 15.3478ZM13.7579 9.99666C14.0866 9.67559 14.5249 9.51505 14.9631 9.51505C15.9492 9.51505 16.6615 10.2642 16.6615 11.1739C16.6615 12.1371 15.8945 12.8328 14.9631 12.8328C13.977 12.8328 13.2648 12.0836 13.2648 11.1739C13.2648 10.7458 13.4292 10.3177 13.7579 9.99666Z" fill="white"/><path d="M19.6746 16.8462C20.0581 16.4716 20.1129 15.9365 19.7842 15.4013C19.5102 14.9732 19.0172 14.7592 18.4693 14.8662C18.2502 14.9197 18.0311 15.0268 17.8119 15.1873C16.1136 16.311 13.8127 16.2575 12.1143 15.1338C12.0048 15.0803 11.8952 15.0268 11.7856 14.9732C11.183 14.7057 10.5804 14.8127 10.2517 15.3478C9.86818 15.883 9.92296 16.4716 10.416 16.9532C10.5256 17.0602 10.6352 17.1137 10.6899 17.2207L10.7447 17.2743C11.5117 17.8629 12.443 18.2375 13.6483 18.398L12.9361 19.0937C12.3335 19.6823 11.6761 20.3244 11.0734 20.913C10.9091 21.0736 10.6899 21.3411 10.6899 21.7157C10.6899 22.1973 10.9639 22.6789 11.4569 22.893C11.6213 23 11.7856 23 11.95 23C12.2239 23 12.5526 22.893 12.7717 22.6254C13.5935 21.8227 14.2509 21.1806 14.9083 20.5385C14.9631 20.485 14.9631 20.485 14.9631 20.485C14.9631 20.485 15.0179 20.485 15.0179 20.5385C15.4562 21.0201 15.9493 21.4482 16.3875 21.9298C16.6067 22.1438 16.8258 22.3579 17.0449 22.5719C17.3189 22.8395 17.538 22.9465 17.8667 22.9465C18.3598 23 18.9076 22.6789 19.1268 22.1973C19.3459 21.7692 19.2363 21.2341 18.8528 20.913C18.305 20.3779 17.7571 19.7893 17.1545 19.2542L16.2232 18.3445C16.7162 18.291 17.2641 18.184 17.7571 17.9699C18.5789 17.7023 19.1815 17.3278 19.6746 16.8462Z" fill="white"/></g></g></symbol><symbol id="telegramm" viewBox="0 0 30 30"><g fill="none"><circle cx="15" cy="15" r="15" fill="#FF9EA8"/><path d="M7.26303 15.2399L10.7116 16.5175L12.0559 20.8148C12.1144 21.1051 12.4651 21.1632 12.6989 20.989L14.6278 19.4211C14.8031 19.2468 15.0954 19.2468 15.3292 19.4211L18.7777 21.9181C19.0115 22.0924 19.3622 21.9762 19.4207 21.6859L21.9925 9.49079C22.0509 9.20043 21.7587 8.91008 21.4664 9.02622L7.26303 14.485C6.91232 14.6011 6.91232 15.1238 7.26303 15.2399ZM11.8806 15.8787L18.6608 11.7556C18.7777 11.6975 18.8946 11.8717 18.7777 11.9298L13.225 17.0982C13.0496 17.2724 12.8742 17.5047 12.8742 17.7951L12.6989 19.1888C12.6989 19.363 12.4066 19.4211 12.3482 19.1888L11.6468 16.6336C11.4714 16.3433 11.5884 15.9948 11.8806 15.8787Z" fill="white"/></g></symbol><symbol id="user-icon" viewBox="0 0 29 30"><g fill="none"><path d="M14.5 15.7895C16.0618 15.7895 17.5886 15.3265 18.8872 14.459C20.1858 13.5915 21.198 12.3585 21.7956 10.9159C22.3933 9.47335 22.5497 7.88598 22.245 6.35455C21.9403 4.82312 21.1882 3.41642 20.0838 2.31232C18.9795 1.20822 17.5724 0.456319 16.0406 0.151699C14.5088 -0.152921 12.921 0.00342065 11.478 0.600955C10.0351 1.19849 8.8018 2.21038 7.9341 3.50866C7.06639 4.80694 6.60326 6.33331 6.60326 7.89474C6.60576 9.98778 7.43854 11.9944 8.91893 13.4744C10.3993 14.9544 12.4064 15.787 14.5 15.7895ZM14.5 3.1579C15.4371 3.1579 16.3531 3.43571 17.1323 3.9562C17.9115 4.47669 18.5188 5.21648 18.8774 6.08203C19.236 6.94757 19.3298 7.89999 19.147 8.81885C18.9642 9.73771 18.5129 10.5817 17.8503 11.2442C17.1877 11.9067 16.3434 12.3578 15.4243 12.5406C14.5053 12.7233 13.5526 12.6295 12.6868 12.271C11.8211 11.9125 11.0811 11.3054 10.5605 10.5264C10.0398 9.74742 9.76195 8.8316 9.76195 7.89474C9.76195 6.63845 10.2611 5.43362 11.1497 4.54529C12.0382 3.65696 13.2434 3.1579 14.5 3.1579Z" fill="#2A9C9E"/><path d="M28.692 28.1605C28.0043 24.9643 26.1955 22.1194 23.5927 20.1401C20.9898 18.1608 17.7646 17.1777 14.5 17.3684C11.2354 17.1777 8.01015 18.1608 5.40732 20.1401C2.80448 22.1194 0.995732 24.9643 0.307973 28.1605C0.1468 29.1232 0.889018 30 1.86508 30H27.1349C28.111 30 28.8532 29.1232 28.692 28.1605ZM3.99417 26.8421C5.01285 24.4342 7.7088 20.5263 14.5 20.5263C21.2296 20.5263 23.9492 24.4311 24.9885 26.8421H3.99417Z" fill="#2A9C9E"/></g></symbol><symbol id="vk" viewBox="0 0 30 30"><g fill="none"><g clip-path="url(#clip0_115_678)"><circle cx="15" cy="15" r="15" fill="#FF9EA8"/><path d="M16.2592 21C10.451 21 7.13804 16.8709 7 10H9.90943C10.005 15.043 12.1499 17.1792 13.8488 17.6196V10H16.5884V14.3493C18.2661 14.1622 20.0287 12.1802 20.6234 10H23.3629C23.1388 11.1307 22.6922 12.2013 22.0509 13.1448C21.4096 14.0883 20.5874 14.8845 19.6359 15.4835C20.698 16.0308 21.6362 16.8055 22.3885 17.7564C23.1408 18.7073 23.69 19.8128 24 21H20.9844C20.7061 19.9688 20.1405 19.0458 19.3585 18.3465C18.5765 17.6472 17.6129 17.2029 16.5884 17.0691V21H16.2592Z" fill="white"/></g></g></symbol></svg>