<svg width="30" height="30" viewBox="0 0 30 30" fill="none" xmlns="http://www.w3.org/2000/svg"><g clip-path="url(#clip0_93_436)"><circle cx="15" cy="15" r="15" fill="#FF9EA8"/><path d="M19.6746 16.8462C20.0581 16.4716 20.1129 15.9365 19.7842 15.4013C19.5102 14.9732 19.0172 14.7592 18.4693 14.8662C18.2502 14.9197 18.0311 15.0268 17.8119 15.1873C16.1136 16.311 13.8127 16.2575 12.1143 15.1338C12.0048 15.0803 11.8952 15.0268 11.7856 14.9732C11.183 14.7057 10.5804 14.8127 10.2517 15.3478C9.86818 15.883 9.92296 16.4716 10.416 16.9532C10.5256 17.0602 10.6352 17.1137 10.6899 17.2207L10.7447 17.2743C11.5117 17.8629 12.443 18.2375 13.6483 18.398L12.9361 19.0937C12.3335 19.6823 11.6761 20.3244 11.0734 20.913C10.9091 21.0736 10.6899 21.3411 10.6899 21.7157C10.6899 22.1973 10.9639 22.6789 11.4569 22.893C11.6213 23 11.7856 23 11.95 23C12.2239 23 12.5526 22.893 12.7717 22.6254C13.5935 21.8227 14.2509 21.1806 14.9083 20.5385C14.9631 20.485 14.9631 20.485 14.9631 20.485C14.9631 20.485 15.0179 20.485 15.0179 20.5385C15.4562 21.0201 15.9493 21.4482 16.3875 21.9298C16.6067 22.1438 16.8258 22.3579 17.0449 22.5719C17.3189 22.8395 17.538 22.9465 17.8667 22.9465C18.3598 23 18.9076 22.6789 19.1268 22.1973C19.3459 21.7692 19.2363 21.2341 18.8528 20.913C18.305 20.3779 17.7571 19.7893 17.1545 19.2542L16.2232 18.3445C16.7162 18.291 17.2641 18.184 17.7571 17.9699C18.5789 17.7023 19.1815 17.3278 19.6746 16.8462Z" fill="white"/><path d="M14.9631 15.3478C17.3189 15.3478 19.2363 13.5284 19.2363 11.2274C19.2363 10.1037 18.798 9.03345 17.9763 8.23077C17.1545 7.4281 16.1136 7 15.0179 7C12.6622 7 10.7995 8.87291 10.7447 11.1204C10.7447 12.2441 11.183 13.2609 12.0048 14.0635C12.7718 14.9197 13.8127 15.3478 14.9631 15.3478ZM13.7579 9.99666C14.0866 9.67559 14.5249 9.51505 14.9631 9.51505C15.9492 9.51505 16.6615 10.2642 16.6615 11.1739C16.6615 12.1371 15.8945 12.8328 14.9631 12.8328C13.977 12.8328 13.2648 12.0836 13.2648 11.1739C13.2648 10.7458 13.4292 10.3177 13.7579 9.99666Z" fill="white"/><path d="M19.6746 16.8462C20.0581 16.4716 20.1129 15.9365 19.7842 15.4013C19.5102 14.9732 19.0172 14.7592 18.4693 14.8662C18.2502 14.9197 18.0311 15.0268 17.8119 15.1873C16.1136 16.311 13.8127 16.2575 12.1143 15.1338C12.0048 15.0803 11.8952 15.0268 11.7856 14.9732C11.183 14.7057 10.5804 14.8127 10.2517 15.3478C9.86818 15.883 9.92296 16.4716 10.416 16.9532C10.5256 17.0602 10.6352 17.1137 10.6899 17.2207L10.7447 17.2743C11.5117 17.8629 12.443 18.2375 13.6483 18.398L12.9361 19.0937C12.3335 19.6823 11.6761 20.3244 11.0734 20.913C10.9091 21.0736 10.6899 21.3411 10.6899 21.7157C10.6899 22.1973 10.9639 22.6789 11.4569 22.893C11.6213 23 11.7856 23 11.95 23C12.2239 23 12.5526 22.893 12.7717 22.6254C13.5935 21.8227 14.2509 21.1806 14.9083 20.5385C14.9631 20.485 14.9631 20.485 14.9631 20.485C14.9631 20.485 15.0179 20.485 15.0179 20.5385C15.4562 21.0201 15.9493 21.4482 16.3875 21.9298C16.6067 22.1438 16.8258 22.3579 17.0449 22.5719C17.3189 22.8395 17.538 22.9465 17.8667 22.9465C18.3598 23 18.9076 22.6789 19.1268 22.1973C19.3459 21.7692 19.2363 21.2341 18.8528 20.913C18.305 20.3779 17.7571 19.7893 17.1545 19.2542L16.2232 18.3445C16.7162 18.291 17.2641 18.184 17.7571 17.9699C18.5789 17.7023 19.1815 17.3278 19.6746 16.8462Z" fill="white"/></g><defs><clipPath id="clip0_93_436"><rect width="30" height="30" fill="white"/></clipPath></defs></svg>